<svg id="svg" version="1.1" xmlns="http://www.w3.org/2000/svg" xmlns:xlink="http://www.w3.org/1999/xlink" width="400" height="400" viewBox="0, 0, 400,400"><g id="svgg"><path id="path0" d="M189.800 0.273 C 188.920 0.372,188.029 0.621,187.820 0.827 C 187.611 1.032,186.846 1.200,186.120 1.200 C 185.394 1.200,184.800 1.380,184.800 1.600 C 184.800 1.820,184.260 2.000,183.600 2.000 C 182.940 2.000,182.400 2.180,182.400 2.400 C 182.400 2.620,182.040 2.800,181.600 2.800 C 181.160 2.800,180.800 2.980,180.800 3.200 C 180.800 3.420,180.547 3.600,180.238 3.600 C 179.572 3.600,176.259 5.268,176.067 5.700 C 175.993 5.865,175.678 6.000,175.367 6.000 C 175.055 6.000,174.800 6.180,174.800 6.400 C 174.800 6.620,174.440 6.800,174.000 6.800 C 173.560 6.800,173.200 6.948,173.200 7.129 C 173.200 7.310,171.805 8.152,170.100 9.000 C 168.395 9.848,166.910 10.645,166.800 10.771 C 166.690 10.897,165.790 11.437,164.800 11.970 C 163.810 12.504,162.910 13.044,162.800 13.171 C 162.690 13.298,162.060 13.671,161.400 14.001 C 160.740 14.330,159.851 14.915,159.425 15.300 C 158.998 15.685,158.413 16.000,158.125 16.000 C 157.836 16.000,157.600 16.180,157.600 16.400 C 157.600 16.620,157.280 16.800,156.888 16.800 C 156.497 16.800,155.917 17.160,155.600 17.600 C 155.283 18.040,154.703 18.400,154.312 18.400 C 153.920 18.400,153.600 18.580,153.600 18.800 C 153.600 19.020,153.280 19.200,152.888 19.200 C 152.497 19.200,151.917 19.560,151.600 20.000 C 151.283 20.440,150.703 20.800,150.312 20.800 C 149.920 20.800,149.600 20.980,149.600 21.200 C 149.600 21.420,149.322 21.600,148.983 21.600 C 148.644 21.600,147.980 21.960,147.508 22.400 C 147.036 22.840,146.413 23.200,146.125 23.200 C 145.836 23.200,145.600 23.380,145.600 23.600 C 145.600 23.820,145.240 24.000,144.800 24.000 C 144.360 24.000,144.000 24.137,144.000 24.305 C 144.000 24.473,143.652 24.788,143.227 25.005 C 139.793 26.759,138.000 27.815,138.000 28.084 C 138.000 28.258,137.640 28.400,137.200 28.400 C 136.760 28.400,136.400 28.580,136.400 28.800 C 136.400 29.020,136.164 29.200,135.875 29.200 C 135.587 29.200,134.964 29.560,134.492 30.000 C 134.020 30.440,133.356 30.800,133.017 30.800 C 132.678 30.800,132.400 30.980,132.400 31.200 C 132.400 31.420,132.164 31.600,131.875 31.600 C 131.587 31.600,130.964 31.960,130.492 32.400 C 130.020 32.840,129.356 33.200,129.017 33.200 C 128.678 33.200,128.400 33.380,128.400 33.600 C 128.400 33.820,128.130 34.000,127.800 34.000 C 127.470 34.000,127.200 34.180,127.200 34.400 C 127.200 34.620,126.930 34.800,126.600 34.800 C 126.270 34.800,126.000 34.980,126.000 35.200 C 126.000 35.420,125.730 35.600,125.400 35.600 C 125.070 35.600,124.800 35.780,124.800 36.000 C 124.800 36.220,124.522 36.400,124.183 36.400 C 123.844 36.400,123.180 36.760,122.708 37.200 C 122.236 37.640,121.613 38.000,121.325 38.000 C 121.036 38.000,120.800 38.180,120.800 38.400 C 120.800 38.620,120.522 38.800,120.183 38.800 C 119.844 38.800,119.180 39.160,118.708 39.600 C 118.236 40.040,117.613 40.400,117.325 40.400 C 117.036 40.400,116.800 40.580,116.800 40.800 C 116.800 41.020,116.455 41.200,116.033 41.200 C 115.612 41.200,115.207 41.335,115.133 41.500 C 115.060 41.665,114.280 42.153,113.400 42.585 C 112.520 43.017,111.048 43.872,110.128 44.485 C 109.208 45.098,108.263 45.600,108.028 45.600 C 107.793 45.600,107.600 45.780,107.600 46.000 C 107.600 46.220,107.364 46.400,107.075 46.400 C 106.787 46.400,106.164 46.760,105.692 47.200 C 105.220 47.640,104.556 48.000,104.217 48.000 C 103.878 48.000,103.600 48.180,103.600 48.400 C 103.600 48.620,103.280 48.800,102.888 48.800 C 102.497 48.800,101.917 49.160,101.600 49.600 C 101.283 50.040,100.703 50.400,100.312 50.400 C 99.920 50.400,99.600 50.580,99.600 50.800 C 99.600 51.020,99.280 51.200,98.888 51.200 C 98.497 51.200,97.917 51.560,97.600 52.000 C 97.283 52.440,96.703 52.800,96.312 52.800 C 95.920 52.800,95.600 52.980,95.600 53.200 C 95.600 53.420,95.364 53.600,95.075 53.600 C 94.787 53.600,94.164 53.960,93.692 54.400 C 93.220 54.840,92.646 55.200,92.417 55.200 C 92.188 55.200,92.000 55.380,92.000 55.600 C 92.000 55.820,91.640 56.000,91.200 56.000 C 90.760 56.000,90.400 56.180,90.400 56.400 C 90.400 56.620,90.164 56.800,89.875 56.800 C 89.587 56.800,88.964 57.160,88.492 57.600 C 88.020 58.040,87.437 58.400,87.197 58.400 C 86.706 58.400,84.308 59.574,84.000 59.966 C 83.890 60.105,82.945 60.665,81.900 61.209 C 80.855 61.753,80.000 62.300,80.000 62.425 C 80.000 62.549,79.370 62.898,78.600 63.200 C 77.830 63.502,77.200 63.896,77.200 64.075 C 77.200 64.254,76.930 64.400,76.600 64.400 C 76.270 64.400,76.000 64.580,76.000 64.800 C 76.000 65.020,75.730 65.200,75.400 65.200 C 75.070 65.200,74.800 65.380,74.800 65.600 C 74.800 65.820,74.480 66.000,74.088 66.000 C 73.697 66.000,73.117 66.360,72.800 66.800 C 72.483 67.240,71.903 67.600,71.512 67.600 C 71.120 67.600,70.800 67.780,70.800 68.000 C 70.800 68.220,70.522 68.400,70.183 68.400 C 69.844 68.400,69.180 68.760,68.708 69.200 C 68.236 69.640,67.613 70.000,67.325 70.000 C 67.036 70.000,66.800 70.180,66.800 70.400 C 66.800 70.620,66.440 70.800,66.000 70.800 C 65.560 70.800,65.200 70.980,65.200 71.200 C 65.200 71.420,64.930 71.600,64.600 71.600 C 64.270 71.600,64.000 71.780,64.000 72.000 C 64.000 72.220,63.730 72.400,63.400 72.400 C 63.070 72.400,62.800 72.580,62.800 72.800 C 62.800 73.020,62.440 73.200,62.000 73.200 C 61.560 73.200,61.200 73.380,61.200 73.600 C 61.200 73.820,60.930 74.000,60.600 74.000 C 60.270 74.000,59.997 74.135,59.993 74.300 C 59.990 74.465,58.910 75.134,57.593 75.786 C 56.277 76.439,55.200 77.114,55.200 77.286 C 55.200 77.459,54.840 77.600,54.400 77.600 C 53.960 77.600,53.600 77.780,53.600 78.000 C 53.600 78.220,53.364 78.400,53.075 78.400 C 52.787 78.400,52.164 78.760,51.692 79.200 C 51.220 79.640,50.556 80.000,50.217 80.000 C 49.878 80.000,49.600 80.180,49.600 80.400 C 49.600 80.620,49.364 80.800,49.075 80.800 C 48.787 80.800,48.164 81.160,47.692 81.600 C 47.220 82.040,46.673 82.400,46.476 82.400 C 46.279 82.400,45.554 82.940,44.863 83.600 C 44.172 84.260,43.509 84.800,43.390 84.800 C 42.737 84.800,33.224 94.999,33.207 95.717 C 33.203 95.891,32.840 96.420,32.400 96.892 C 31.960 97.364,31.600 97.987,31.600 98.275 C 31.600 98.564,31.420 98.800,31.200 98.800 C 30.980 98.800,30.800 99.160,30.800 99.600 C 30.800 100.040,30.620 100.400,30.400 100.400 C 30.180 100.400,30.000 100.760,30.000 101.200 C 30.000 101.640,29.820 102.000,29.600 102.000 C 29.380 102.000,29.200 102.360,29.200 102.800 C 29.200 103.240,29.020 103.600,28.800 103.600 C 28.580 103.600,28.400 103.960,28.400 104.400 C 28.400 104.840,28.220 105.200,28.000 105.200 C 27.780 105.200,27.600 105.740,27.600 106.400 C 27.600 107.060,27.420 107.600,27.200 107.600 C 26.980 107.600,26.800 107.962,26.800 108.405 C 26.800 108.848,26.636 109.523,26.435 109.905 C 25.010 112.619,25.000 113.273,25.000 200.400 C 25.000 287.576,24.987 286.760,26.404 290.200 C 26.585 290.640,26.967 291.855,27.254 292.900 C 27.540 293.945,27.915 294.800,28.087 294.800 C 28.259 294.800,28.400 295.160,28.400 295.600 C 28.400 296.040,28.580 296.400,28.800 296.400 C 29.020 296.400,29.200 296.653,29.200 296.962 C 29.200 297.628,30.868 300.941,31.300 301.133 C 31.465 301.207,31.600 301.572,31.600 301.945 C 31.600 302.318,31.960 302.883,32.400 303.200 C 32.840 303.517,33.200 304.004,33.200 304.281 C 33.200 304.559,33.695 305.344,34.300 306.026 C 36.229 308.201,43.164 315.200,43.390 315.200 C 43.509 315.200,44.172 315.740,44.863 316.400 C 45.554 317.060,46.279 317.600,46.476 317.600 C 46.673 317.600,47.220 317.960,47.692 318.400 C 48.164 318.840,48.787 319.200,49.075 319.200 C 49.364 319.200,49.600 319.380,49.600 319.600 C 49.600 319.820,49.878 320.000,50.217 320.000 C 50.556 320.000,51.220 320.360,51.692 320.800 C 52.164 321.240,52.787 321.600,53.075 321.600 C 53.364 321.600,53.600 321.780,53.600 322.000 C 53.600 322.220,53.960 322.400,54.400 322.400 C 54.840 322.400,55.200 322.541,55.200 322.714 C 55.200 322.886,56.277 323.561,57.593 324.214 C 58.910 324.866,59.990 325.535,59.993 325.700 C 59.997 325.865,60.270 326.000,60.600 326.000 C 60.930 326.000,61.200 326.180,61.200 326.400 C 61.200 326.620,61.560 326.800,62.000 326.800 C 62.440 326.800,62.800 326.980,62.800 327.200 C 62.800 327.420,63.036 327.600,63.325 327.600 C 63.613 327.600,64.236 327.960,64.708 328.400 C 65.180 328.840,65.844 329.200,66.183 329.200 C 66.522 329.200,66.800 329.380,66.800 329.600 C 66.800 329.820,67.036 330.000,67.325 330.000 C 67.613 330.000,68.236 330.360,68.708 330.800 C 69.180 331.240,69.844 331.600,70.183 331.600 C 70.522 331.600,70.800 331.780,70.800 332.000 C 70.800 332.220,71.120 332.400,71.512 332.400 C 71.903 332.400,72.483 332.760,72.800 333.200 C 73.117 333.640,73.697 334.000,74.088 334.000 C 74.480 334.000,74.800 334.180,74.800 334.400 C 74.800 334.620,75.070 334.800,75.400 334.800 C 75.730 334.800,76.000 334.980,76.000 335.200 C 76.000 335.420,76.270 335.600,76.600 335.600 C 76.930 335.600,77.200 335.746,77.200 335.925 C 77.200 336.104,77.830 336.498,78.600 336.800 C 79.370 337.102,80.000 337.451,80.000 337.575 C 80.000 337.700,80.855 338.247,81.900 338.791 C 82.945 339.335,83.890 339.895,84.000 340.034 C 84.308 340.426,86.706 341.600,87.197 341.600 C 87.437 341.600,88.020 341.960,88.492 342.400 C 88.964 342.840,89.587 343.200,89.875 343.200 C 90.164 343.200,90.400 343.380,90.400 343.600 C 90.400 343.820,90.760 344.000,91.200 344.000 C 91.640 344.000,92.000 344.180,92.000 344.400 C 92.000 344.620,92.188 344.800,92.417 344.800 C 92.646 344.800,93.220 345.160,93.692 345.600 C 94.164 346.040,94.787 346.400,95.075 346.400 C 95.364 346.400,95.600 346.580,95.600 346.800 C 95.600 347.020,95.920 347.200,96.312 347.200 C 96.703 347.200,97.283 347.560,97.600 348.000 C 97.917 348.440,98.497 348.800,98.888 348.800 C 99.280 348.800,99.600 348.980,99.600 349.200 C 99.600 349.420,99.920 349.600,100.312 349.600 C 100.703 349.600,101.283 349.960,101.600 350.400 C 101.917 350.840,102.497 351.200,102.888 351.200 C 103.280 351.200,103.600 351.380,103.600 351.600 C 103.600 351.820,103.878 352.000,104.217 352.000 C 104.556 352.000,105.220 352.360,105.692 352.800 C 106.164 353.240,106.787 353.600,107.075 353.600 C 107.364 353.600,107.600 353.780,107.600 354.000 C 107.600 354.220,107.793 354.400,108.028 354.400 C 108.263 354.400,109.208 354.902,110.128 355.515 C 111.048 356.128,112.520 356.983,113.400 357.415 C 114.280 357.847,115.060 358.335,115.133 358.500 C 115.207 358.665,115.612 358.800,116.033 358.800 C 116.455 358.800,116.800 358.980,116.800 359.200 C 116.800 359.420,117.036 359.600,117.325 359.600 C 117.613 359.600,118.236 359.960,118.708 360.400 C 119.180 360.840,119.844 361.200,120.183 361.200 C 120.522 361.200,120.800 361.380,120.800 361.600 C 120.800 361.820,121.120 362.000,121.512 362.000 C 121.903 362.000,122.483 362.360,122.800 362.800 C 123.117 363.240,123.697 363.600,124.088 363.600 C 124.480 363.600,124.800 363.780,124.800 364.000 C 124.800 364.220,125.070 364.400,125.400 364.400 C 125.730 364.400,126.000 364.580,126.000 364.800 C 126.000 365.020,126.270 365.200,126.600 365.200 C 126.930 365.200,127.200 365.380,127.200 365.600 C 127.200 365.820,127.470 366.000,127.800 366.000 C 128.130 366.000,128.400 366.180,128.400 366.400 C 128.400 366.620,128.678 366.800,129.017 366.800 C 129.356 366.800,130.020 367.160,130.492 367.600 C 130.964 368.040,131.587 368.400,131.875 368.400 C 132.164 368.400,132.400 368.580,132.400 368.800 C 132.400 369.020,132.678 369.200,133.017 369.200 C 133.356 369.200,134.020 369.560,134.492 370.000 C 134.964 370.440,135.587 370.800,135.875 370.800 C 136.164 370.800,136.400 370.980,136.400 371.200 C 136.400 371.420,136.760 371.600,137.200 371.600 C 137.640 371.600,138.000 371.742,138.000 371.916 C 138.000 372.185,139.793 373.241,143.227 374.995 C 143.652 375.212,144.000 375.527,144.000 375.695 C 144.000 375.863,144.360 376.000,144.800 376.000 C 145.240 376.000,145.600 376.180,145.600 376.400 C 145.600 376.620,145.836 376.800,146.125 376.800 C 146.413 376.800,147.036 377.160,147.508 377.600 C 147.980 378.040,148.644 378.400,148.983 378.400 C 149.322 378.400,149.600 378.580,149.600 378.800 C 149.600 379.020,149.920 379.200,150.312 379.200 C 150.703 379.200,151.283 379.560,151.600 380.000 C 151.917 380.440,152.497 380.800,152.888 380.800 C 153.280 380.800,153.600 380.980,153.600 381.200 C 153.600 381.420,153.920 381.600,154.312 381.600 C 154.703 381.600,155.283 381.960,155.600 382.400 C 155.917 382.840,156.497 383.200,156.888 383.200 C 157.280 383.200,157.600 383.380,157.600 383.600 C 157.600 383.820,157.836 384.000,158.125 384.000 C 158.413 384.000,158.998 384.315,159.425 384.700 C 159.851 385.085,160.740 385.670,161.400 385.999 C 162.060 386.329,162.690 386.689,162.800 386.799 C 162.910 386.910,163.405 387.225,163.900 387.500 C 164.395 387.775,165.205 388.225,165.700 388.500 C 166.195 388.775,166.690 389.103,166.800 389.229 C 166.910 389.355,168.395 390.152,170.100 391.000 C 171.805 391.848,173.200 392.690,173.200 392.871 C 173.200 393.052,173.560 393.200,174.000 393.200 C 174.440 393.200,174.800 393.380,174.800 393.600 C 174.800 393.820,175.070 394.000,175.400 394.000 C 175.730 394.000,176.001 394.135,176.003 394.300 C 176.007 394.659,177.944 395.600,178.680 395.600 C 178.966 395.600,179.200 395.780,179.200 396.000 C 179.200 396.220,179.560 396.400,180.000 396.400 C 180.440 396.400,180.800 396.580,180.800 396.800 C 180.800 397.020,181.160 397.200,181.600 397.200 C 182.040 397.200,182.400 397.380,182.400 397.600 C 182.400 397.820,182.940 398.000,183.600 398.000 C 184.260 398.000,184.800 398.180,184.800 398.400 C 184.800 398.620,185.394 398.800,186.120 398.800 C 186.846 398.800,187.665 399.025,187.940 399.300 C 188.664 400.024,211.659 400.024,211.900 399.300 C 211.996 399.013,212.736 398.800,213.633 398.800 C 214.495 398.800,215.200 398.620,215.200 398.400 C 215.200 398.180,215.740 398.000,216.400 398.000 C 217.060 398.000,217.600 397.820,217.600 397.600 C 217.600 397.380,217.960 397.200,218.400 397.200 C 218.840 397.200,219.200 397.020,219.200 396.800 C 219.200 396.580,219.453 396.400,219.762 396.400 C 220.428 396.400,223.741 394.732,223.933 394.300 C 224.007 394.135,224.322 394.000,224.633 394.000 C 224.945 394.000,225.200 393.820,225.200 393.600 C 225.200 393.380,225.560 393.200,226.000 393.200 C 226.440 393.200,226.801 393.065,226.803 392.900 C 226.805 392.735,227.210 392.412,227.703 392.182 C 229.093 391.535,232.976 389.430,233.200 389.203 C 233.310 389.091,234.210 388.563,235.200 388.030 C 236.190 387.496,237.090 386.956,237.200 386.829 C 237.310 386.702,237.940 386.329,238.600 385.999 C 239.260 385.670,240.149 385.085,240.575 384.700 C 241.002 384.315,241.587 384.000,241.875 384.000 C 242.164 384.000,242.400 383.820,242.400 383.600 C 242.400 383.380,242.720 383.200,243.112 383.200 C 243.503 383.200,244.083 382.840,244.400 382.400 C 244.717 381.960,245.297 381.600,245.688 381.600 C 246.080 381.600,246.400 381.420,246.400 381.200 C 246.400 380.980,246.678 380.800,247.017 380.800 C 247.356 380.800,248.020 380.440,248.492 380.000 C 248.964 379.560,249.587 379.200,249.875 379.200 C 250.164 379.200,250.400 379.020,250.400 378.800 C 250.400 378.580,250.760 378.400,251.200 378.400 C 251.640 378.400,252.000 378.220,252.000 378.000 C 252.000 377.780,252.270 377.600,252.600 377.600 C 252.930 377.600,253.200 377.420,253.200 377.200 C 253.200 376.980,253.470 376.800,253.800 376.800 C 254.130 376.800,254.400 376.620,254.400 376.400 C 254.400 376.180,254.760 376.000,255.200 376.000 C 255.640 376.000,256.000 375.863,256.000 375.695 C 256.000 375.527,256.348 375.212,256.773 374.995 C 260.207 373.241,262.000 372.185,262.000 371.916 C 262.000 371.742,262.360 371.600,262.800 371.600 C 263.240 371.600,263.600 371.420,263.600 371.200 C 263.600 370.980,263.836 370.800,264.125 370.800 C 264.413 370.800,265.036 370.440,265.508 370.000 C 265.980 369.560,266.644 369.200,266.983 369.200 C 267.322 369.200,267.600 369.020,267.600 368.800 C 267.600 368.580,267.836 368.400,268.125 368.400 C 268.413 368.400,269.036 368.040,269.508 367.600 C 269.980 367.160,270.644 366.800,270.983 366.800 C 271.322 366.800,271.600 366.620,271.600 366.400 C 271.600 366.180,271.836 366.000,272.125 366.000 C 272.413 366.000,273.036 365.640,273.508 365.200 C 273.980 364.760,274.554 364.400,274.783 364.400 C 275.012 364.400,275.200 364.220,275.200 364.000 C 275.200 363.780,275.560 363.600,276.000 363.600 C 276.440 363.600,276.800 363.420,276.800 363.200 C 276.800 362.980,277.036 362.800,277.325 362.800 C 277.613 362.800,278.236 362.440,278.708 362.000 C 279.180 361.560,279.844 361.200,280.183 361.200 C 280.522 361.200,280.800 361.020,280.800 360.800 C 280.800 360.580,281.036 360.400,281.325 360.400 C 281.613 360.400,282.236 360.040,282.708 359.600 C 283.180 359.160,283.829 358.800,284.150 358.800 C 284.471 358.800,284.793 358.665,284.867 358.500 C 284.940 358.335,285.720 357.847,286.600 357.415 C 287.480 356.983,288.952 356.128,289.872 355.515 C 290.792 354.902,291.737 354.400,291.972 354.400 C 292.207 354.400,292.400 354.220,292.400 354.000 C 292.400 353.780,292.720 353.600,293.112 353.600 C 293.503 353.600,294.083 353.240,294.400 352.800 C 294.717 352.360,295.297 352.000,295.688 352.000 C 296.080 352.000,296.400 351.820,296.400 351.600 C 296.400 351.380,296.720 351.200,297.112 351.200 C 297.503 351.200,298.083 350.840,298.400 350.400 C 298.717 349.960,299.297 349.600,299.688 349.600 C 300.080 349.600,300.400 349.420,300.400 349.200 C 300.400 348.980,300.678 348.800,301.017 348.800 C 301.356 348.800,302.020 348.440,302.492 348.000 C 302.964 347.560,303.587 347.200,303.875 347.200 C 304.164 347.200,304.400 347.020,304.400 346.800 C 304.400 346.580,304.668 346.400,304.995 346.400 C 305.543 346.400,306.478 345.770,307.816 344.500 C 308.106 344.225,308.626 344.000,308.971 344.000 C 309.317 344.000,309.600 343.820,309.600 343.600 C 309.600 343.380,309.920 343.200,310.312 343.200 C 310.703 343.200,311.283 342.840,311.600 342.400 C 311.917 341.960,312.416 341.600,312.708 341.600 C 313.272 341.600,315.663 340.463,316.000 340.034 C 316.110 339.895,317.055 339.335,318.100 338.791 C 319.145 338.247,320.000 337.666,320.000 337.501 C 320.000 337.335,320.360 337.200,320.800 337.200 C 321.240 337.200,321.600 337.020,321.600 336.800 C 321.600 336.580,321.870 336.400,322.200 336.400 C 322.530 336.400,322.800 336.220,322.800 336.000 C 322.800 335.780,323.070 335.600,323.400 335.600 C 323.730 335.600,324.000 335.420,324.000 335.200 C 324.000 334.980,324.270 334.800,324.600 334.800 C 324.930 334.800,325.200 334.620,325.200 334.400 C 325.200 334.180,325.478 334.000,325.817 334.000 C 326.156 334.000,326.820 333.640,327.292 333.200 C 327.764 332.760,328.387 332.400,328.675 332.400 C 328.964 332.400,329.200 332.220,329.200 332.000 C 329.200 331.780,329.560 331.600,330.000 331.600 C 330.440 331.600,330.800 331.420,330.800 331.200 C 330.800 330.980,331.070 330.800,331.400 330.800 C 331.730 330.800,332.000 330.620,332.000 330.400 C 332.000 330.180,332.270 330.000,332.600 330.000 C 332.930 330.000,333.200 329.820,333.200 329.600 C 333.200 329.380,333.560 329.200,334.000 329.200 C 334.440 329.200,334.800 329.020,334.800 328.800 C 334.800 328.580,335.070 328.400,335.400 328.400 C 335.730 328.400,336.000 328.220,336.000 328.000 C 336.000 327.780,336.270 327.600,336.600 327.600 C 336.930 327.600,337.200 327.420,337.200 327.200 C 337.200 326.980,337.560 326.800,338.000 326.800 C 338.440 326.800,338.800 326.620,338.800 326.400 C 338.800 326.180,339.070 326.000,339.400 326.000 C 339.730 326.000,340.003 325.865,340.007 325.700 C 340.010 325.535,341.090 324.866,342.407 324.214 C 343.723 323.561,344.800 322.886,344.800 322.714 C 344.800 322.541,345.160 322.400,345.600 322.400 C 346.040 322.400,346.400 322.220,346.400 322.000 C 346.400 321.780,346.636 321.600,346.925 321.600 C 347.213 321.600,347.836 321.240,348.308 320.800 C 348.780 320.360,349.444 320.000,349.783 320.000 C 350.122 320.000,350.400 319.820,350.400 319.600 C 350.400 319.380,350.636 319.200,350.925 319.200 C 351.213 319.200,351.836 318.840,352.308 318.400 C 352.780 317.960,353.309 317.597,353.483 317.593 C 354.201 317.576,364.400 308.063,364.400 307.410 C 364.400 307.291,364.940 306.628,365.600 305.937 C 366.260 305.246,366.800 304.521,366.800 304.324 C 366.800 304.127,367.160 303.580,367.600 303.108 C 368.040 302.636,368.400 302.013,368.400 301.725 C 368.400 301.436,368.580 301.200,368.800 301.200 C 369.020 301.200,369.200 300.840,369.200 300.400 C 369.200 299.960,369.380 299.600,369.600 299.600 C 369.820 299.600,370.000 299.240,370.000 298.800 C 370.000 298.360,370.180 298.000,370.400 298.000 C 370.620 298.000,370.800 297.640,370.800 297.200 C 370.800 296.760,370.980 296.400,371.200 296.400 C 371.420 296.400,371.600 296.040,371.600 295.600 C 371.600 295.160,371.780 294.800,372.000 294.800 C 372.220 294.800,372.400 294.260,372.400 293.600 C 372.400 292.940,372.580 292.400,372.800 292.400 C 373.020 292.400,373.200 292.038,373.200 291.595 C 373.200 291.152,373.364 290.477,373.565 290.095 C 374.990 287.380,375.000 286.734,375.000 199.400 C 375.000 121.007,374.947 114.024,374.333 112.000 C 372.925 107.357,372.221 105.395,371.916 105.267 C 371.742 105.193,371.600 104.867,371.600 104.541 C 371.600 103.685,369.182 98.800,368.758 98.800 C 368.561 98.800,368.400 98.440,368.400 98.000 C 368.400 97.560,368.220 97.200,368.000 97.200 C 367.780 97.200,367.597 96.975,367.593 96.700 C 367.579 95.740,356.608 84.000,355.725 84.000 C 355.533 84.000,355.117 83.640,354.800 83.200 C 354.483 82.760,353.986 82.400,353.695 82.400 C 353.404 82.400,352.780 82.040,352.308 81.600 C 351.836 81.160,351.213 80.800,350.925 80.800 C 350.636 80.800,350.400 80.620,350.400 80.400 C 350.400 80.180,350.122 80.000,349.783 80.000 C 349.444 80.000,348.780 79.640,348.308 79.200 C 347.836 78.760,347.213 78.400,346.925 78.400 C 346.636 78.400,346.400 78.220,346.400 78.000 C 346.400 77.780,346.040 77.600,345.600 77.600 C 345.160 77.600,344.800 77.459,344.800 77.286 C 344.800 77.114,343.723 76.439,342.407 75.786 C 341.090 75.134,340.010 74.465,340.007 74.300 C 340.003 74.135,339.730 74.000,339.400 74.000 C 339.070 74.000,338.800 73.820,338.800 73.600 C 338.800 73.380,338.440 73.200,338.000 73.200 C 337.560 73.200,337.200 73.020,337.200 72.800 C 337.200 72.580,336.930 72.400,336.600 72.400 C 336.270 72.400,336.000 72.220,336.000 72.000 C 336.000 71.780,335.730 71.600,335.400 71.600 C 335.070 71.600,334.800 71.420,334.800 71.200 C 334.800 70.980,334.440 70.800,334.000 70.800 C 333.560 70.800,333.200 70.620,333.200 70.400 C 333.200 70.180,332.930 70.000,332.600 70.000 C 332.270 70.000,332.000 69.820,332.000 69.600 C 332.000 69.380,331.730 69.200,331.400 69.200 C 331.070 69.200,330.800 69.020,330.800 68.800 C 330.800 68.580,330.440 68.400,330.000 68.400 C 329.560 68.400,329.200 68.220,329.200 68.000 C 329.200 67.780,328.964 67.600,328.675 67.600 C 328.387 67.600,327.764 67.240,327.292 66.800 C 326.820 66.360,326.156 66.000,325.817 66.000 C 325.478 66.000,325.200 65.820,325.200 65.600 C 325.200 65.380,324.930 65.200,324.600 65.200 C 324.270 65.200,324.000 65.020,324.000 64.800 C 324.000 64.580,323.730 64.400,323.400 64.400 C 323.070 64.400,322.800 64.220,322.800 64.000 C 322.800 63.780,322.530 63.600,322.200 63.600 C 321.870 63.600,321.600 63.420,321.600 63.200 C 321.600 62.980,321.240 62.800,320.800 62.800 C 320.360 62.800,320.000 62.641,320.000 62.446 C 320.000 62.109,317.353 60.647,316.685 60.615 C 316.512 60.607,316.242 60.400,316.085 60.156 C 315.728 59.600,313.420 58.400,312.708 58.400 C 312.416 58.400,311.917 58.040,311.600 57.600 C 311.283 57.160,310.703 56.800,310.312 56.800 C 309.920 56.800,309.600 56.620,309.600 56.400 C 309.600 56.180,309.280 56.000,308.888 56.000 C 308.497 56.000,307.917 55.640,307.600 55.200 C 307.283 54.760,306.793 54.400,306.512 54.400 C 306.230 54.400,306.000 54.220,306.000 54.000 C 306.000 53.780,305.640 53.600,305.200 53.600 C 304.760 53.600,304.400 53.420,304.400 53.200 C 304.400 52.980,304.164 52.800,303.875 52.800 C 303.587 52.800,302.964 52.440,302.492 52.000 C 302.020 51.560,301.356 51.200,301.017 51.200 C 300.678 51.200,300.400 51.020,300.400 50.800 C 300.400 50.580,300.080 50.400,299.688 50.400 C 299.297 50.400,298.717 50.040,298.400 49.600 C 298.083 49.160,297.503 48.800,297.112 48.800 C 296.720 48.800,296.400 48.620,296.400 48.400 C 296.400 48.180,296.080 48.000,295.688 48.000 C 295.297 48.000,294.717 47.640,294.400 47.200 C 294.083 46.760,293.503 46.400,293.112 46.400 C 292.720 46.400,292.400 46.220,292.400 46.000 C 292.400 45.780,292.207 45.600,291.972 45.600 C 291.737 45.600,290.792 45.098,289.872 44.485 C 288.952 43.872,287.480 43.017,286.600 42.585 C 285.720 42.153,284.940 41.665,284.867 41.500 C 284.793 41.335,284.471 41.200,284.150 41.200 C 283.829 41.200,283.180 40.840,282.708 40.400 C 282.236 39.960,281.613 39.600,281.325 39.600 C 281.036 39.600,280.800 39.420,280.800 39.200 C 280.800 38.980,280.522 38.800,280.183 38.800 C 279.844 38.800,279.180 38.440,278.708 38.000 C 278.236 37.560,277.613 37.200,277.325 37.200 C 277.036 37.200,276.800 37.020,276.800 36.800 C 276.800 36.580,276.440 36.400,276.000 36.400 C 275.560 36.400,275.200 36.220,275.200 36.000 C 275.200 35.780,275.012 35.600,274.783 35.600 C 274.554 35.600,273.980 35.240,273.508 34.800 C 273.036 34.360,272.413 34.000,272.125 34.000 C 271.836 34.000,271.600 33.820,271.600 33.600 C 271.600 33.380,271.322 33.200,270.983 33.200 C 270.644 33.200,269.980 32.840,269.508 32.400 C 269.036 31.960,268.413 31.600,268.125 31.600 C 267.836 31.600,267.600 31.420,267.600 31.200 C 267.600 30.980,267.322 30.800,266.983 30.800 C 266.644 30.800,265.980 30.440,265.508 30.000 C 265.036 29.560,264.413 29.200,264.125 29.200 C 263.836 29.200,263.600 29.020,263.600 28.800 C 263.600 28.580,263.240 28.400,262.800 28.400 C 262.360 28.400,262.000 28.258,262.000 28.084 C 262.000 27.815,260.207 26.759,256.773 25.005 C 256.348 24.788,256.000 24.473,256.000 24.305 C 256.000 24.137,255.640 24.000,255.200 24.000 C 254.760 24.000,254.400 23.820,254.400 23.600 C 254.400 23.380,254.130 23.200,253.800 23.200 C 253.470 23.200,253.200 23.020,253.200 22.800 C 253.200 22.580,252.930 22.400,252.600 22.400 C 252.270 22.400,252.000 22.220,252.000 22.000 C 252.000 21.780,251.640 21.600,251.200 21.600 C 250.760 21.600,250.400 21.420,250.400 21.200 C 250.400 20.980,250.164 20.800,249.875 20.800 C 249.587 20.800,248.964 20.440,248.492 20.000 C 248.020 19.560,247.356 19.200,247.017 19.200 C 246.678 19.200,246.400 19.020,246.400 18.800 C 246.400 18.580,246.080 18.400,245.688 18.400 C 245.297 18.400,244.717 18.040,244.400 17.600 C 244.083 17.160,243.503 16.800,243.112 16.800 C 242.720 16.800,242.400 16.620,242.400 16.400 C 242.400 16.180,242.164 16.000,241.875 16.000 C 241.587 16.000,241.002 15.685,240.575 15.300 C 240.149 14.915,239.260 14.330,238.600 14.001 C 237.940 13.671,237.310 13.298,237.200 13.171 C 237.090 13.044,236.190 12.504,235.200 11.970 C 234.210 11.437,233.310 10.903,233.200 10.785 C 233.090 10.667,231.965 10.037,230.701 9.385 C 229.436 8.733,228.401 8.065,228.401 7.900 C 228.400 7.735,228.040 7.600,227.600 7.600 C 227.160 7.600,226.800 7.420,226.800 7.200 C 226.800 6.980,226.440 6.800,226.000 6.800 C 225.560 6.800,225.200 6.620,225.200 6.400 C 225.200 6.180,224.945 6.000,224.633 6.000 C 224.322 6.000,224.007 5.865,223.933 5.700 C 223.741 5.268,220.428 3.600,219.762 3.600 C 219.453 3.600,219.200 3.420,219.200 3.200 C 219.200 2.980,218.840 2.800,218.400 2.800 C 217.960 2.800,217.600 2.620,217.600 2.400 C 217.600 2.180,217.060 2.000,216.400 2.000 C 215.740 2.000,215.200 1.820,215.200 1.600 C 215.200 1.380,214.606 1.200,213.880 1.200 C 213.154 1.200,212.336 0.976,212.062 0.702 C 211.562 0.202,193.506 -0.146,189.800 0.273 M206.000 10.000 C 206.000 10.220,206.810 10.400,207.800 10.400 C 208.790 10.400,209.600 10.580,209.600 10.800 C 209.600 11.020,210.140 11.200,210.800 11.200 C 211.460 11.200,212.000 11.380,212.000 11.600 C 212.000 11.820,212.439 12.000,212.976 12.000 C 213.513 12.000,214.064 12.180,214.200 12.400 C 214.336 12.620,214.797 12.800,215.224 12.800 C 215.651 12.800,216.000 12.980,216.000 13.200 C 216.000 13.420,216.360 13.600,216.800 13.600 C 217.240 13.600,217.600 13.780,217.600 14.000 C 217.600 14.220,217.960 14.400,218.400 14.400 C 218.840 14.400,219.200 14.580,219.200 14.800 C 219.200 15.020,219.520 15.200,219.912 15.200 C 220.303 15.200,220.883 15.560,221.200 16.000 C 221.517 16.440,222.097 16.800,222.488 16.800 C 222.880 16.800,223.200 16.980,223.200 17.200 C 223.200 17.420,223.494 17.600,223.853 17.600 C 224.212 17.600,224.797 17.916,225.153 18.303 C 225.509 18.689,226.340 19.274,227.000 19.602 C 227.660 19.930,228.290 20.289,228.400 20.399 C 228.510 20.510,229.005 20.825,229.500 21.100 C 229.995 21.375,230.805 21.825,231.300 22.100 C 231.795 22.375,232.290 22.706,232.400 22.835 C 232.510 22.964,233.950 23.770,235.600 24.626 C 237.250 25.481,238.660 26.320,238.733 26.491 C 238.807 26.661,239.212 26.800,239.633 26.800 C 240.055 26.800,240.400 26.980,240.400 27.200 C 240.400 27.420,240.670 27.600,241.000 27.600 C 241.330 27.600,241.600 27.780,241.600 28.000 C 241.600 28.220,241.870 28.400,242.200 28.400 C 242.530 28.400,242.800 28.580,242.800 28.800 C 242.800 29.020,243.070 29.200,243.400 29.200 C 243.730 29.200,244.000 29.380,244.000 29.600 C 244.000 29.820,244.320 30.000,244.712 30.000 C 245.103 30.000,245.683 30.360,246.000 30.800 C 246.317 31.240,246.897 31.600,247.288 31.600 C 247.680 31.600,248.000 31.780,248.000 32.000 C 248.000 32.220,248.320 32.400,248.712 32.400 C 249.103 32.400,249.683 32.760,250.000 33.200 C 250.317 33.640,250.897 34.000,251.288 34.000 C 251.680 34.000,252.000 34.180,252.000 34.400 C 252.000 34.620,252.278 34.800,252.617 34.800 C 252.956 34.800,253.620 35.160,254.092 35.600 C 254.564 36.040,255.187 36.400,255.475 36.400 C 255.764 36.400,256.000 36.580,256.000 36.800 C 256.000 37.020,256.278 37.200,256.617 37.200 C 256.956 37.200,257.589 37.531,258.023 37.936 C 258.458 38.341,259.305 38.922,259.907 39.227 C 260.508 39.532,261.671 40.191,262.492 40.691 C 263.313 41.191,264.258 41.600,264.592 41.600 C 264.926 41.600,265.200 41.780,265.200 42.000 C 265.200 42.220,265.436 42.400,265.725 42.400 C 266.013 42.400,266.636 42.760,267.108 43.200 C 267.580 43.640,268.244 44.000,268.583 44.000 C 268.922 44.000,269.200 44.180,269.200 44.400 C 269.200 44.620,269.436 44.800,269.725 44.800 C 270.013 44.800,270.636 45.160,271.108 45.600 C 271.580 46.040,272.244 46.400,272.583 46.400 C 272.922 46.400,273.200 46.580,273.200 46.800 C 273.200 47.020,273.520 47.200,273.912 47.200 C 274.303 47.200,274.883 47.560,275.200 48.000 C 275.517 48.440,276.007 48.800,276.288 48.800 C 276.570 48.800,276.800 48.980,276.800 49.200 C 276.800 49.420,277.078 49.600,277.417 49.600 C 277.756 49.600,278.420 49.960,278.892 50.400 C 279.364 50.840,279.987 51.200,280.275 51.200 C 280.564 51.200,280.800 51.380,280.800 51.600 C 280.800 51.820,281.078 52.000,281.417 52.000 C 281.756 52.000,282.420 52.360,282.892 52.800 C 283.364 53.240,283.987 53.600,284.275 53.600 C 284.564 53.600,284.800 53.780,284.800 54.000 C 284.800 54.220,285.160 54.400,285.600 54.400 C 286.040 54.400,286.400 54.545,286.400 54.721 C 286.400 54.898,287.297 55.483,288.394 56.021 C 289.490 56.560,290.390 57.108,290.394 57.240 C 290.397 57.372,291.210 57.813,292.200 58.222 C 293.190 58.630,294.000 59.107,294.000 59.282 C 294.000 59.457,294.236 59.600,294.525 59.600 C 294.813 59.600,295.436 59.960,295.908 60.400 C 296.380 60.840,297.044 61.200,297.383 61.200 C 297.722 61.200,298.000 61.380,298.000 61.600 C 298.000 61.820,298.320 62.000,298.712 62.000 C 299.103 62.000,299.683 62.360,300.000 62.800 C 300.317 63.240,300.897 63.600,301.288 63.600 C 301.680 63.600,302.000 63.780,302.000 64.000 C 302.000 64.220,302.320 64.400,302.712 64.400 C 303.103 64.400,303.683 64.760,304.000 65.200 C 304.317 65.640,304.897 66.000,305.288 66.000 C 305.680 66.000,306.000 66.180,306.000 66.400 C 306.000 66.620,306.294 66.800,306.653 66.800 C 307.012 66.800,307.597 67.116,307.953 67.503 C 308.309 67.889,309.140 68.474,309.800 68.802 C 310.460 69.130,311.090 69.489,311.200 69.599 C 311.310 69.710,311.805 70.025,312.300 70.300 C 312.795 70.575,313.605 71.025,314.100 71.300 C 314.595 71.575,315.090 71.890,315.200 72.000 C 315.610 72.410,317.861 73.638,319.700 74.455 C 320.745 74.919,321.600 75.456,321.600 75.649 C 321.600 75.842,321.960 76.000,322.400 76.000 C 322.840 76.000,323.200 76.180,323.200 76.400 C 323.200 76.620,323.520 76.800,323.912 76.800 C 324.303 76.800,324.883 77.160,325.200 77.600 C 325.517 78.040,326.007 78.400,326.288 78.400 C 326.570 78.400,326.800 78.580,326.800 78.800 C 326.800 79.020,327.078 79.200,327.417 79.200 C 327.756 79.200,328.420 79.560,328.892 80.000 C 329.364 80.440,329.987 80.800,330.275 80.800 C 330.564 80.800,330.800 80.980,330.800 81.200 C 330.800 81.420,331.078 81.600,331.417 81.600 C 331.756 81.600,332.420 81.960,332.892 82.400 C 333.364 82.840,333.987 83.200,334.275 83.200 C 334.564 83.200,334.800 83.380,334.800 83.600 C 334.800 83.820,335.078 84.000,335.417 84.000 C 335.756 84.000,336.420 84.360,336.892 84.800 C 337.364 85.240,337.987 85.600,338.275 85.600 C 338.564 85.600,338.800 85.780,338.800 86.000 C 338.800 86.220,339.078 86.400,339.417 86.400 C 339.756 86.400,340.420 86.760,340.892 87.200 C 341.364 87.640,341.987 88.000,342.275 88.000 C 342.564 88.000,342.800 88.180,342.800 88.400 C 342.800 88.620,342.958 88.800,343.152 88.800 C 343.690 88.800,348.087 91.451,349.086 92.378 C 349.573 92.830,350.134 93.200,350.332 93.200 C 350.820 93.200,355.200 97.434,355.200 97.906 C 355.200 98.112,355.740 98.846,356.400 99.537 C 357.060 100.228,357.600 100.974,357.600 101.196 C 357.600 101.418,357.759 101.600,357.953 101.600 C 358.148 101.600,358.406 101.915,358.528 102.300 C 358.649 102.685,359.111 103.630,359.555 104.400 C 360.747 106.470,362.000 109.276,362.000 109.875 C 362.000 110.164,362.180 110.400,362.400 110.400 C 362.620 110.400,362.800 110.760,362.800 111.200 C 362.800 111.640,362.620 112.000,362.400 112.000 C 362.180 112.000,362.000 111.855,362.000 111.677 C 362.000 109.499,351.128 107.830,346.400 109.282 C 344.563 109.846,341.436 111.319,341.267 111.700 C 341.193 111.865,340.788 112.000,340.367 112.000 C 339.945 112.000,339.600 112.180,339.600 112.400 C 339.600 112.620,339.280 112.800,338.888 112.800 C 338.497 112.800,337.917 113.160,337.600 113.600 C 337.283 114.040,336.786 114.400,336.495 114.400 C 336.204 114.400,335.580 114.760,335.108 115.200 C 334.636 115.640,334.013 116.000,333.725 116.000 C 333.436 116.000,333.200 116.180,333.200 116.400 C 333.200 116.620,332.880 116.800,332.488 116.800 C 332.097 116.800,331.517 117.160,331.200 117.600 C 330.883 118.040,330.303 118.400,329.912 118.400 C 329.520 118.400,329.200 118.580,329.200 118.800 C 329.200 119.020,328.930 119.200,328.600 119.200 C 328.270 119.200,328.000 119.380,328.000 119.600 C 328.000 119.820,327.730 120.000,327.400 120.000 C 327.070 120.000,326.800 120.180,326.800 120.400 C 326.800 120.620,326.570 120.800,326.288 120.800 C 326.007 120.800,325.517 121.160,325.200 121.600 C 324.883 122.040,324.303 122.400,323.912 122.400 C 323.520 122.400,323.200 122.580,323.200 122.800 C 323.200 123.020,322.880 123.200,322.488 123.200 C 322.097 123.200,321.517 123.560,321.200 124.000 C 320.883 124.440,320.314 124.800,319.935 124.800 C 319.557 124.800,319.143 124.968,319.017 125.173 C 318.890 125.378,317.799 126.046,316.593 126.657 C 315.387 127.267,314.400 127.910,314.400 128.084 C 314.400 128.258,314.207 128.400,313.972 128.400 C 313.737 128.400,312.759 128.940,311.800 129.600 C 310.841 130.260,309.903 130.800,309.716 130.800 C 309.529 130.800,309.117 131.160,308.800 131.600 C 308.483 132.040,307.903 132.400,307.512 132.400 C 307.120 132.400,306.800 132.580,306.800 132.800 C 306.800 133.020,306.564 133.200,306.275 133.200 C 305.987 133.200,305.364 133.560,304.892 134.000 C 304.420 134.440,303.796 134.800,303.505 134.800 C 303.214 134.800,302.717 135.160,302.400 135.600 C 302.083 136.040,301.503 136.400,301.112 136.400 C 300.720 136.400,300.400 136.580,300.400 136.800 C 300.400 137.020,300.164 137.200,299.875 137.200 C 299.587 137.200,298.964 137.560,298.492 138.000 C 298.020 138.440,297.438 138.800,297.200 138.800 C 296.962 138.800,296.380 139.160,295.908 139.600 C 295.436 140.040,294.813 140.400,294.525 140.400 C 294.236 140.400,294.000 140.580,294.000 140.800 C 294.000 141.020,293.730 141.200,293.400 141.200 C 293.070 141.200,292.800 141.362,292.800 141.561 C 292.800 141.759,292.305 142.111,291.700 142.342 C 290.641 142.746,288.414 143.985,288.000 144.401 C 287.890 144.511,287.305 144.856,286.700 145.168 C 286.095 145.480,285.600 145.885,285.600 146.068 C 285.600 146.250,285.322 146.400,284.983 146.400 C 284.644 146.400,283.980 146.760,283.508 147.200 C 283.036 147.640,282.413 148.000,282.125 148.000 C 281.836 148.000,281.600 148.180,281.600 148.400 C 281.600 148.620,281.280 148.800,280.888 148.800 C 280.497 148.800,279.917 149.160,279.600 149.600 C 279.283 150.040,278.703 150.400,278.312 150.400 C 277.920 150.400,277.600 150.580,277.600 150.800 C 277.600 151.020,277.330 151.200,277.000 151.200 C 276.670 151.200,276.400 151.350,276.400 151.532 C 276.400 151.715,275.905 152.119,275.300 152.430 C 274.695 152.740,273.909 153.311,273.553 153.697 C 273.197 154.084,272.612 154.400,272.253 154.400 C 271.894 154.400,271.600 154.580,271.600 154.800 C 271.600 155.020,271.280 155.200,270.888 155.200 C 270.497 155.200,269.917 155.560,269.600 156.000 C 269.283 156.440,268.703 156.800,268.312 156.800 C 267.920 156.800,267.600 156.959,267.600 157.153 C 267.600 157.347,266.655 157.977,265.500 158.552 C 263.329 159.632,262.959 159.849,260.135 161.700 C 259.211 162.305,258.303 162.800,258.116 162.800 C 257.929 162.800,257.517 163.160,257.200 163.600 C 256.883 164.040,256.303 164.400,255.912 164.400 C 255.520 164.400,255.200 164.580,255.200 164.800 C 255.200 165.020,254.964 165.200,254.675 165.200 C 254.387 165.200,253.764 165.560,253.292 166.000 C 252.820 166.440,252.196 166.800,251.905 166.800 C 251.614 166.800,251.117 167.160,250.800 167.600 C 250.483 168.040,249.903 168.400,249.512 168.400 C 249.120 168.400,248.800 168.580,248.800 168.800 C 248.800 169.020,248.564 169.200,248.275 169.200 C 247.987 169.200,247.364 169.560,246.892 170.000 C 246.420 170.440,245.838 170.800,245.600 170.800 C 245.362 170.800,244.811 171.131,244.377 171.536 C 243.942 171.941,243.095 172.525,242.493 172.833 C 241.892 173.142,241.109 173.711,240.753 174.097 C 240.397 174.484,239.834 174.800,239.502 174.800 C 239.170 174.800,238.674 175.070,238.400 175.400 C 238.126 175.730,237.564 176.000,237.151 176.000 C 236.738 176.000,236.400 176.158,236.400 176.351 C 236.400 176.545,235.860 176.927,235.200 177.200 C 234.540 177.473,234.000 177.855,234.000 178.049 C 234.000 178.242,233.722 178.400,233.383 178.400 C 233.044 178.400,232.380 178.760,231.908 179.200 C 231.436 179.640,230.813 180.000,230.525 180.000 C 230.236 180.000,230.000 180.180,230.000 180.400 C 230.000 180.620,229.764 180.800,229.475 180.800 C 229.187 180.800,228.602 181.115,228.175 181.500 C 227.749 181.885,226.860 182.469,226.200 182.797 C 225.540 183.126,224.709 183.711,224.353 184.097 C 223.997 184.484,223.452 184.800,223.141 184.800 C 222.831 184.800,222.317 185.160,222.000 185.600 C 221.683 186.040,221.103 186.400,220.712 186.400 C 220.320 186.400,220.000 186.580,220.000 186.800 C 220.000 187.020,219.680 187.200,219.288 187.200 C 218.897 187.200,218.317 187.560,218.000 188.000 C 217.683 188.440,217.143 188.800,216.800 188.800 C 216.457 188.800,215.917 189.160,215.600 189.600 C 215.283 190.040,214.743 190.400,214.400 190.400 C 214.057 190.400,213.517 190.760,213.200 191.200 C 212.883 191.640,212.404 192.000,212.136 192.000 C 211.256 192.000,203.647 198.700,203.618 199.500 C 203.608 199.775,203.420 200.000,203.200 200.000 C 202.980 200.000,202.800 200.182,202.800 200.404 C 202.800 200.626,202.260 201.372,201.600 202.063 C 200.940 202.754,200.400 203.562,200.400 203.859 C 200.400 204.157,200.220 204.400,200.000 204.400 C 199.780 204.400,199.600 204.760,199.600 205.200 C 199.600 205.640,199.420 206.000,199.200 206.000 C 198.980 206.000,198.800 206.360,198.800 206.800 C 198.800 207.240,198.620 207.600,198.400 207.600 C 198.180 207.600,198.000 207.960,198.000 208.400 C 198.000 208.840,197.820 209.200,197.600 209.200 C 197.380 209.200,197.200 209.650,197.200 210.200 C 197.200 210.750,197.040 211.200,196.844 211.200 C 196.436 211.200,196.040 213.135,195.740 216.600 C 195.626 217.920,195.368 219.171,195.166 219.380 C 194.644 219.922,194.677 373.077,195.200 373.400 C 195.420 373.536,195.600 374.717,195.600 376.024 C 195.600 377.341,195.778 378.400,196.000 378.400 C 196.220 378.400,196.400 378.852,196.400 379.405 C 196.400 379.958,196.580 380.768,196.800 381.205 C 197.020 381.642,197.380 382.360,197.600 382.800 C 198.600 384.800,199.137 385.508,201.154 387.487 L 203.307 389.600 197.854 389.600 C 194.485 389.600,192.400 389.447,192.400 389.200 C 192.400 388.980,191.770 388.800,191.000 388.800 C 190.230 388.800,189.600 388.620,189.600 388.400 C 189.600 388.180,189.060 388.000,188.400 388.000 C 187.740 388.000,187.200 387.820,187.200 387.600 C 187.200 387.380,186.947 387.200,186.638 387.200 C 185.972 387.200,182.659 385.532,182.467 385.100 C 182.393 384.935,181.988 384.800,181.567 384.800 C 181.145 384.800,180.800 384.620,180.800 384.400 C 180.800 384.180,180.522 384.000,180.183 384.000 C 179.844 384.000,179.180 383.640,178.708 383.200 C 178.236 382.760,177.613 382.400,177.325 382.400 C 177.036 382.400,176.800 382.220,176.800 382.000 C 176.800 381.780,176.440 381.600,176.000 381.600 C 175.560 381.600,175.200 381.420,175.200 381.200 C 175.200 380.980,175.012 380.800,174.783 380.800 C 174.554 380.800,173.980 380.440,173.508 380.000 C 173.036 379.560,172.413 379.200,172.125 379.200 C 171.836 379.200,171.600 379.020,171.600 378.800 C 171.600 378.580,171.240 378.400,170.800 378.400 C 170.360 378.400,170.000 378.241,170.000 378.047 C 170.000 377.853,169.013 377.211,167.808 376.621 C 166.602 376.031,165.511 375.380,165.384 375.174 C 165.257 374.968,164.803 374.800,164.376 374.800 C 163.949 374.800,163.600 374.620,163.600 374.400 C 163.600 374.180,163.280 374.000,162.888 374.000 C 162.497 374.000,161.917 373.640,161.600 373.200 C 161.283 372.760,160.703 372.400,160.312 372.400 C 159.920 372.400,159.600 372.220,159.600 372.000 C 159.600 371.780,159.280 371.600,158.888 371.600 C 158.497 371.600,157.917 371.240,157.600 370.800 C 157.283 370.360,156.793 370.000,156.512 370.000 C 156.230 370.000,156.000 369.820,156.000 369.600 C 156.000 369.380,155.640 369.200,155.200 369.200 C 154.760 369.200,154.400 369.020,154.400 368.800 C 154.400 368.580,154.130 368.400,153.800 368.400 C 153.470 368.400,153.200 368.220,153.200 368.000 C 153.200 367.780,152.930 367.600,152.600 367.600 C 152.270 367.600,152.000 367.420,152.000 367.200 C 152.000 366.980,151.640 366.800,151.200 366.800 C 150.760 366.800,150.400 366.642,150.400 366.449 C 150.400 366.255,149.860 365.873,149.200 365.600 C 148.540 365.327,148.000 364.945,148.000 364.751 C 148.000 364.558,147.640 364.400,147.200 364.400 C 146.760 364.400,146.400 364.220,146.400 364.000 C 146.400 363.780,146.164 363.600,145.875 363.600 C 145.587 363.600,144.964 363.240,144.492 362.800 C 144.020 362.360,143.356 362.000,143.017 362.000 C 142.678 362.000,142.400 361.820,142.400 361.600 C 142.400 361.380,142.242 361.200,142.048 361.200 C 141.667 361.200,137.303 358.686,136.517 358.013 C 136.251 357.786,135.756 357.600,135.417 357.600 C 135.078 357.600,134.800 357.420,134.800 357.200 C 134.800 356.980,134.480 356.800,134.088 356.800 C 133.697 356.800,133.117 356.440,132.800 356.000 C 132.483 355.560,131.903 355.200,131.512 355.200 C 131.120 355.200,130.800 355.020,130.800 354.800 C 130.800 354.580,130.480 354.400,130.088 354.400 C 129.697 354.400,129.117 354.040,128.800 353.600 C 128.483 353.160,127.903 352.800,127.512 352.800 C 127.120 352.800,126.800 352.620,126.800 352.400 C 126.800 352.180,126.522 352.000,126.183 352.000 C 125.844 352.000,125.211 351.669,124.777 351.264 C 124.342 350.859,123.495 350.274,122.893 349.965 C 122.292 349.655,121.710 349.311,121.600 349.201 C 121.206 348.805,118.987 347.546,118.300 347.329 C 117.915 347.207,117.600 346.948,117.600 346.753 C 117.600 346.559,117.322 346.400,116.983 346.400 C 116.644 346.400,115.980 346.040,115.508 345.600 C 115.036 345.160,114.413 344.800,114.125 344.800 C 113.836 344.800,113.600 344.620,113.600 344.400 C 113.600 344.180,113.240 344.000,112.800 344.000 C 112.360 344.000,112.000 343.852,112.000 343.670 C 112.000 343.489,110.920 342.842,109.600 342.232 C 108.280 341.623,107.200 340.961,107.200 340.762 C 107.200 340.563,106.930 340.400,106.600 340.400 C 106.270 340.400,106.000 340.220,106.000 340.000 C 106.000 339.780,105.722 339.600,105.383 339.600 C 105.044 339.600,104.380 339.240,103.908 338.800 C 103.436 338.360,102.813 338.000,102.525 338.000 C 102.236 338.000,102.000 337.820,102.000 337.600 C 102.000 337.380,101.722 337.200,101.383 337.200 C 101.044 337.200,100.380 336.840,99.908 336.400 C 99.436 335.960,98.813 335.600,98.525 335.600 C 98.236 335.600,98.000 335.420,98.000 335.200 C 98.000 334.980,97.640 334.800,97.200 334.800 C 96.760 334.800,96.400 334.642,96.400 334.449 C 96.400 334.255,95.860 333.873,95.200 333.600 C 94.540 333.327,94.000 332.945,94.000 332.751 C 94.000 332.558,93.640 332.400,93.200 332.400 C 92.760 332.400,92.400 332.220,92.400 332.000 C 92.400 331.780,92.130 331.600,91.800 331.600 C 91.470 331.600,91.200 331.420,91.200 331.200 C 91.200 330.980,90.930 330.800,90.600 330.800 C 90.270 330.800,90.000 330.620,90.000 330.400 C 90.000 330.180,89.730 330.000,89.400 330.000 C 89.070 330.000,88.800 329.820,88.800 329.600 C 88.800 329.380,88.440 329.200,88.000 329.200 C 87.560 329.200,87.200 329.048,87.200 328.863 C 87.200 328.677,86.345 328.095,85.300 327.568 C 84.255 327.042,83.310 326.498,83.200 326.361 C 82.857 325.934,80.467 324.800,79.908 324.800 C 79.616 324.800,79.117 324.440,78.800 324.000 C 78.483 323.560,77.903 323.200,77.512 323.200 C 77.120 323.200,76.800 323.020,76.800 322.800 C 76.800 322.580,76.506 322.400,76.147 322.400 C 75.788 322.400,75.203 322.071,74.847 321.670 C 74.491 321.268,73.615 320.684,72.900 320.372 C 72.185 320.060,71.600 319.669,71.600 319.502 C 71.600 319.336,71.330 319.200,71.000 319.200 C 70.670 319.200,70.400 319.020,70.400 318.800 C 70.400 318.580,70.130 318.400,69.800 318.400 C 69.470 318.400,69.200 318.220,69.200 318.000 C 69.200 317.780,68.840 317.600,68.400 317.600 C 67.960 317.600,67.600 317.420,67.600 317.200 C 67.600 316.980,67.364 316.800,67.075 316.800 C 66.787 316.800,66.164 316.440,65.692 316.000 C 65.220 315.560,64.556 315.200,64.217 315.200 C 63.878 315.200,63.600 315.020,63.600 314.800 C 63.600 314.580,63.280 314.400,62.888 314.400 C 62.497 314.400,61.917 314.040,61.600 313.600 C 61.283 313.160,60.703 312.800,60.312 312.800 C 59.920 312.800,59.600 312.620,59.600 312.400 C 59.600 312.180,59.322 312.000,58.983 312.000 C 58.644 312.000,57.990 311.649,57.529 311.220 C 57.069 310.791,56.094 310.156,55.363 309.809 C 54.632 309.462,53.926 309.003,53.793 308.789 C 53.661 308.575,53.294 308.400,52.977 308.400 C 52.660 308.400,51.659 307.680,50.752 306.800 C 49.845 305.920,48.941 305.200,48.741 305.200 C 48.276 305.200,44.800 301.734,44.800 301.270 C 44.800 301.077,44.260 300.354,43.600 299.663 C 42.940 298.972,42.400 298.319,42.400 298.211 C 42.400 298.104,41.800 297.067,41.066 295.908 C 40.332 294.748,39.478 293.215,39.168 292.500 C 38.858 291.785,38.469 291.200,38.302 291.200 C 38.136 291.200,38.000 290.838,38.000 290.395 C 38.000 289.617,37.858 289.231,36.862 287.305 C 36.608 286.813,36.400 285.868,36.400 285.205 C 36.400 284.542,36.220 284.000,36.000 284.000 C 35.780 284.000,35.600 283.201,35.600 282.224 C 35.600 281.247,35.420 280.336,35.200 280.200 C 34.646 279.858,34.646 119.342,35.200 119.000 C 35.420 118.864,35.600 117.953,35.600 116.976 C 35.600 115.999,35.780 115.200,36.000 115.200 C 36.220 115.200,36.403 114.795,36.406 114.300 C 36.413 113.324,37.282 110.585,37.726 110.141 C 37.877 109.990,38.000 109.447,38.000 108.933 C 38.000 108.420,38.136 108.000,38.302 108.000 C 38.469 108.000,38.860 107.415,39.171 106.700 C 39.483 105.985,40.157 104.729,40.669 103.908 C 41.181 103.087,41.600 102.215,41.600 101.968 C 41.600 101.722,42.140 101.017,42.800 100.400 C 43.460 99.783,44.000 99.091,44.000 98.862 C 44.000 98.333,49.110 93.200,49.637 93.200 C 49.852 93.200,50.427 92.830,50.914 92.378 C 51.913 91.451,56.310 88.800,56.848 88.800 C 57.042 88.800,57.200 88.620,57.200 88.400 C 57.200 88.180,57.436 88.000,57.725 88.000 C 58.013 88.000,58.636 87.640,59.108 87.200 C 59.580 86.760,60.244 86.400,60.583 86.400 C 60.922 86.400,61.200 86.220,61.200 86.000 C 61.200 85.780,61.436 85.600,61.725 85.600 C 62.013 85.600,62.636 85.240,63.108 84.800 C 63.580 84.360,64.244 84.000,64.583 84.000 C 64.922 84.000,65.200 83.820,65.200 83.600 C 65.200 83.380,65.520 83.200,65.912 83.200 C 66.303 83.200,66.883 82.840,67.200 82.400 C 67.517 81.960,68.097 81.600,68.488 81.600 C 68.880 81.600,69.200 81.420,69.200 81.200 C 69.200 80.980,69.478 80.800,69.817 80.800 C 70.156 80.800,70.820 80.440,71.292 80.000 C 71.764 79.560,72.387 79.200,72.675 79.200 C 72.964 79.200,73.200 79.020,73.200 78.800 C 73.200 78.580,73.470 78.400,73.800 78.400 C 74.130 78.400,74.400 78.220,74.400 78.000 C 74.400 77.780,74.636 77.600,74.925 77.600 C 75.213 77.600,75.836 77.240,76.308 76.800 C 76.780 76.360,77.444 76.000,77.783 76.000 C 78.122 76.000,78.400 75.820,78.400 75.600 C 78.400 75.380,78.749 75.200,79.176 75.200 C 79.603 75.200,80.057 75.032,80.183 74.827 C 80.310 74.622,81.401 73.954,82.607 73.343 C 83.813 72.733,84.800 72.090,84.800 71.916 C 84.800 71.742,85.160 71.600,85.600 71.600 C 86.040 71.600,86.400 71.420,86.400 71.200 C 86.400 70.980,86.636 70.800,86.925 70.800 C 87.213 70.800,87.798 70.485,88.225 70.100 C 88.651 69.715,89.540 69.131,90.200 68.803 C 90.860 68.474,91.691 67.889,92.047 67.503 C 92.403 67.116,92.988 66.800,93.347 66.800 C 93.706 66.800,94.000 66.620,94.000 66.400 C 94.000 66.180,94.320 66.000,94.712 66.000 C 95.103 66.000,95.683 65.640,96.000 65.200 C 96.317 64.760,96.897 64.400,97.288 64.400 C 97.680 64.400,98.000 64.220,98.000 64.000 C 98.000 63.780,98.278 63.600,98.617 63.600 C 98.956 63.600,99.620 63.240,100.092 62.800 C 100.564 62.360,101.187 62.000,101.475 62.000 C 101.764 62.000,102.000 61.820,102.000 61.600 C 102.000 61.380,102.360 61.200,102.800 61.200 C 103.240 61.200,103.600 61.020,103.600 60.800 C 103.600 60.580,103.870 60.400,104.200 60.400 C 104.530 60.400,104.800 60.220,104.800 60.000 C 104.800 59.780,105.070 59.600,105.400 59.600 C 105.730 59.600,106.000 59.457,106.000 59.282 C 106.000 59.107,106.810 58.630,107.800 58.222 C 108.790 57.813,109.600 57.327,109.600 57.140 C 109.600 56.953,109.960 56.800,110.400 56.800 C 110.840 56.800,111.200 56.642,111.200 56.449 C 111.200 56.255,111.740 55.873,112.400 55.600 C 113.060 55.327,113.600 54.945,113.600 54.751 C 113.600 54.558,113.960 54.400,114.400 54.400 C 114.840 54.400,115.200 54.220,115.200 54.000 C 115.200 53.780,115.436 53.600,115.725 53.600 C 116.013 53.600,116.636 53.240,117.108 52.800 C 117.580 52.360,118.244 52.000,118.583 52.000 C 118.922 52.000,119.200 51.820,119.200 51.600 C 119.200 51.380,119.436 51.200,119.725 51.200 C 120.013 51.200,120.636 50.840,121.108 50.400 C 121.580 49.960,122.244 49.600,122.583 49.600 C 122.922 49.600,123.200 49.420,123.200 49.200 C 123.200 48.980,123.388 48.800,123.617 48.800 C 123.846 48.800,124.420 48.440,124.892 48.000 C 125.364 47.560,125.987 47.200,126.275 47.200 C 126.564 47.200,126.800 47.020,126.800 46.800 C 126.800 46.580,127.160 46.400,127.600 46.400 C 128.040 46.400,128.400 46.220,128.400 46.000 C 128.400 45.780,128.636 45.600,128.925 45.600 C 129.213 45.600,129.836 45.240,130.308 44.800 C 130.780 44.360,131.444 44.000,131.783 44.000 C 132.122 44.000,132.400 43.820,132.400 43.600 C 132.400 43.380,132.636 43.200,132.925 43.200 C 133.213 43.200,133.836 42.840,134.308 42.400 C 134.780 41.960,135.358 41.600,135.591 41.600 C 135.825 41.600,136.687 41.191,137.508 40.691 C 138.329 40.191,139.492 39.532,140.093 39.227 C 140.695 38.922,141.542 38.341,141.977 37.936 C 142.411 37.531,143.044 37.200,143.383 37.200 C 143.722 37.200,144.000 37.020,144.000 36.800 C 144.000 36.580,144.320 36.400,144.712 36.400 C 145.103 36.400,145.683 36.040,146.000 35.600 C 146.317 35.160,146.897 34.800,147.288 34.800 C 147.680 34.800,148.000 34.620,148.000 34.400 C 148.000 34.180,148.320 34.000,148.712 34.000 C 149.103 34.000,149.683 33.640,150.000 33.200 C 150.317 32.760,150.897 32.400,151.288 32.400 C 151.680 32.400,152.000 32.220,152.000 32.000 C 152.000 31.780,152.278 31.600,152.617 31.600 C 152.956 31.600,153.620 31.240,154.092 30.800 C 154.564 30.360,155.187 30.000,155.475 30.000 C 155.764 30.000,156.000 29.820,156.000 29.600 C 156.000 29.380,156.270 29.200,156.600 29.200 C 156.930 29.200,157.200 29.020,157.200 28.800 C 157.200 28.580,157.520 28.400,157.912 28.400 C 158.303 28.400,158.883 28.040,159.200 27.600 C 159.517 27.160,160.097 26.800,160.488 26.800 C 160.880 26.800,161.200 26.620,161.200 26.400 C 161.200 26.180,161.560 26.000,162.000 26.000 C 162.440 26.000,162.800 25.851,162.800 25.668 C 162.800 25.486,163.732 24.901,164.870 24.368 C 166.009 23.836,167.134 23.219,167.370 22.998 C 167.607 22.776,168.655 22.163,169.700 21.635 C 170.745 21.106,171.600 20.566,171.600 20.435 C 171.600 20.303,172.185 19.940,172.900 19.628 C 173.615 19.316,174.491 18.732,174.847 18.330 C 175.203 17.929,175.788 17.600,176.147 17.600 C 176.506 17.600,176.800 17.420,176.800 17.200 C 176.800 16.980,177.078 16.800,177.417 16.800 C 177.756 16.800,178.420 16.440,178.892 16.000 C 179.364 15.560,179.987 15.200,180.275 15.200 C 180.564 15.200,180.800 15.020,180.800 14.800 C 180.800 14.580,181.160 14.400,181.600 14.400 C 182.040 14.400,182.400 14.220,182.400 14.000 C 182.400 13.780,182.760 13.600,183.200 13.600 C 183.640 13.600,184.000 13.420,184.000 13.200 C 184.000 12.980,184.360 12.800,184.800 12.800 C 185.240 12.800,185.600 12.620,185.600 12.400 C 185.600 12.180,186.039 12.000,186.576 12.000 C 187.113 12.000,187.664 11.820,187.800 11.600 C 187.936 11.380,188.487 11.200,189.024 11.200 C 189.561 11.200,190.000 11.020,190.000 10.800 C 190.000 10.580,190.709 10.400,191.576 10.400 C 192.443 10.400,193.264 10.220,193.400 10.000 C 193.548 9.761,196.137 9.600,199.824 9.600 C 203.675 9.600,206.000 9.751,206.000 10.000 M252.386 220.374 C 252.614 220.799,252.800 223.379,252.800 226.107 C 252.800 231.914,252.693 231.711,255.335 230.912 C 258.631 229.916,264.190 230.013,265.262 231.084 L 266.120 231.943 264.815 237.271 C 262.852 245.287,262.385 245.943,259.094 245.297 C 250.790 243.667,240.799 251.531,240.800 259.696 C 240.801 264.535,242.156 265.439,250.271 266.019 C 256.538 266.467,258.577 266.871,261.146 268.173 C 273.239 274.300,270.722 297.233,256.310 312.246 L 253.144 315.543 253.261 321.471 C 253.399 328.520,253.438 328.430,249.203 330.949 C 243.024 334.625,242.800 334.481,242.800 326.861 L 242.800 321.585 241.700 321.848 C 241.095 321.992,240.420 322.244,240.200 322.408 C 239.104 323.223,231.960 323.622,229.347 323.014 C 227.538 322.594,226.935 321.269,227.568 319.104 C 227.842 318.167,228.243 316.680,228.460 315.800 C 228.677 314.920,229.022 313.647,229.227 312.972 C 229.432 312.296,229.601 311.396,229.601 310.972 C 229.607 308.197,232.052 306.982,235.591 307.997 C 236.936 308.383,240.607 307.962,242.600 307.193 C 250.824 304.019,255.238 298.465,255.295 291.220 C 255.342 285.148,253.953 284.145,244.401 283.356 C 229.302 282.110,225.192 275.975,228.486 259.600 C 228.730 258.390,229.080 257.229,229.264 257.020 C 229.449 256.811,229.600 256.262,229.600 255.800 C 229.600 255.338,229.751 254.789,229.936 254.580 C 230.121 254.371,230.517 253.570,230.817 252.800 C 232.347 248.873,236.348 243.224,239.894 239.985 L 242.200 237.879 242.400 231.494 L 242.600 225.108 244.053 223.854 C 247.873 220.555,251.641 218.982,252.386 220.374 M318.957 289.433 C 319.272 290.253,319.263 297.525,318.945 298.710 C 318.799 299.255,317.799 300.155,316.451 300.956 C 315.213 301.691,312.961 303.053,311.447 303.983 C 309.932 304.913,308.132 305.993,307.447 306.383 C 306.761 306.774,304.670 308.041,302.800 309.200 C 294.819 314.146,286.235 319.200,285.814 319.200 C 284.669 319.200,284.400 318.151,284.400 313.680 C 284.400 308.673,284.699 308.036,287.816 306.400 C 288.445 306.070,291.741 304.135,295.140 302.100 C 298.539 300.065,301.365 298.400,301.419 298.400 C 301.474 298.400,302.703 297.680,304.152 296.800 C 305.600 295.920,306.969 295.200,307.193 295.200 C 307.417 295.200,307.600 295.041,307.600 294.847 C 307.600 294.652,307.915 294.393,308.300 294.271 C 308.985 294.054,311.204 292.796,311.600 292.400 C 311.799 292.201,312.409 291.845,315.155 290.325 C 315.950 289.885,316.771 289.362,316.980 289.162 C 317.582 288.589,318.692 288.740,318.957 289.433 " stroke="none" fill="#fbfbfb" fill-rule="evenodd"></path><path id="path1" d="M249.846 220.726 C 249.735 220.905,248.842 221.464,247.862 221.968 C 246.881 222.473,245.431 223.419,244.639 224.072 L 243.200 225.258 243.200 231.448 L 243.200 237.637 240.049 240.719 C 232.519 248.081,228.377 257.515,228.368 267.325 C 228.358 278.357,233.253 282.798,245.427 282.800 C 255.879 282.801,259.009 288.791,253.893 299.000 C 252.285 302.209,247.786 305.902,243.400 307.614 C 240.303 308.822,236.755 309.019,232.931 308.193 C 231.310 307.842,230.874 308.622,229.460 314.400 C 227.891 320.811,227.831 321.362,228.631 322.026 C 229.764 322.966,237.618 322.722,240.359 321.661 C 243.231 320.550,243.200 320.498,243.200 326.347 C 243.200 332.162,243.626 333.444,245.230 332.462 C 246.631 331.606,248.907 330.317,250.090 329.710 C 252.571 328.438,252.800 327.693,252.800 320.893 L 252.800 314.694 255.314 312.247 C 268.239 299.666,272.383 278.341,263.432 270.481 C 262.144 269.351,261.271 268.871,258.332 267.679 C 257.744 267.441,254.594 267.046,251.332 266.801 C 241.780 266.084,240.209 265.067,240.213 259.605 C 240.214 257.952,240.466 255.970,240.773 255.200 C 243.220 249.064,251.355 244.145,258.536 244.458 C 261.768 244.599,261.786 244.594,262.333 243.460 C 262.932 242.215,265.192 233.422,265.197 232.314 C 265.204 230.647,260.553 230.273,255.690 231.550 C 252.161 232.476,252.401 232.806,252.395 227.033 C 252.388 221.185,252.220 220.400,250.977 220.400 C 250.466 220.400,249.957 220.547,249.846 220.726 M316.000 290.800 C 315.450 291.230,314.775 291.586,314.500 291.591 C 314.225 291.596,314.000 291.746,314.000 291.925 C 314.000 292.104,313.370 292.498,312.600 292.800 C 311.830 293.102,311.200 293.475,311.200 293.628 C 311.200 293.781,310.885 294.007,310.500 294.129 C 309.815 294.346,307.596 295.604,307.200 296.000 C 306.804 296.396,304.585 297.654,303.900 297.871 C 303.515 297.993,303.200 298.252,303.200 298.447 C 303.200 298.641,303.003 298.800,302.762 298.800 C 302.521 298.800,301.846 299.139,301.262 299.553 C 300.678 299.967,299.570 300.663,298.800 301.099 C 298.030 301.535,295.365 303.086,292.877 304.546 C 290.389 306.006,288.184 307.200,287.977 307.200 C 287.770 307.200,287.600 307.337,287.600 307.505 C 287.600 307.673,287.195 307.988,286.700 308.205 C 285.707 308.641,285.025 318.400,285.988 318.400 C 286.214 318.400,286.400 318.241,286.400 318.047 C 286.400 317.852,286.715 317.593,287.100 317.471 C 287.842 317.236,290.063 315.957,290.400 315.571 C 290.510 315.445,290.870 315.224,291.200 315.079 C 291.530 314.935,292.467 314.408,293.282 313.908 C 298.093 310.959,299.757 310.000,300.060 310.000 C 300.247 310.000,300.400 309.841,300.400 309.647 C 300.400 309.452,300.715 309.193,301.100 309.071 C 301.785 308.854,304.004 307.596,304.400 307.200 C 304.796 306.804,307.015 305.546,307.700 305.329 C 308.085 305.207,308.400 304.948,308.400 304.753 C 308.400 304.559,308.590 304.400,308.822 304.400 C 309.054 304.400,310.304 303.680,311.600 302.800 C 312.896 301.920,314.146 301.200,314.378 301.200 C 314.610 301.200,314.800 301.020,314.800 300.800 C 314.800 300.580,315.008 300.400,315.262 300.400 C 315.516 300.400,316.326 299.941,317.062 299.380 L 318.400 298.359 318.400 294.180 C 318.400 289.562,318.108 289.151,316.000 290.800 " stroke="none" fill="#32473a" fill-rule="evenodd"></path><path id="path2" d="M251.075 220.259 C 251.557 220.364,252.042 220.753,252.152 221.125 C 252.298 221.611,252.331 221.576,252.273 221.000 C 252.218 220.457,251.872 220.179,251.196 220.134 C 250.361 220.080,250.342 220.100,251.075 220.259 M242.889 231.569 C 242.815 236.714,242.686 237.875,242.115 238.569 L 241.430 239.400 242.326 238.578 C 243.191 237.784,243.217 237.543,243.100 231.578 L 242.978 225.400 242.889 231.569 M259.491 230.689 C 260.201 230.777,261.461 230.779,262.291 230.692 C 263.121 230.605,262.540 230.533,261.000 230.531 C 259.460 230.529,258.781 230.600,259.491 230.689 M264.586 231.340 C 265.162 231.761,265.266 232.179,265.063 233.240 C 264.878 234.198,264.917 234.423,265.194 234.000 C 265.998 232.774,265.412 230.800,264.244 230.800 C 264.025 230.800,264.179 231.043,264.586 231.340 M238.778 241.500 L 237.400 243.000 238.900 241.622 C 240.296 240.338,240.584 240.000,240.278 240.000 C 240.212 240.000,239.537 240.675,238.778 241.500 M261.794 244.410 C 261.647 244.648,260.672 244.737,259.470 244.622 L 257.400 244.425 259.365 244.833 C 260.990 245.170,261.439 245.133,261.951 244.620 C 262.292 244.279,262.453 244.000,262.309 244.000 C 262.165 244.000,261.933 244.184,261.794 244.410 M254.000 244.806 C 253.578 245.082,253.815 245.123,254.800 244.942 C 256.525 244.625,256.851 244.398,255.567 244.406 C 255.035 244.409,254.330 244.589,254.000 244.806 M234.893 246.300 C 233.857 247.796,233.521 248.400,233.723 248.400 C 233.817 248.400,234.370 247.680,234.953 246.800 C 236.136 245.012,236.084 244.579,234.893 246.300 M240.109 259.600 C 240.109 260.590,240.187 260.995,240.282 260.500 C 240.378 260.005,240.378 259.195,240.282 258.700 C 240.187 258.205,240.109 258.610,240.109 259.600 M228.124 265.000 C 228.126 266.320,228.201 266.812,228.290 266.093 C 228.379 265.374,228.377 264.294,228.286 263.693 C 228.195 263.092,228.122 263.680,228.124 265.000 M244.200 266.000 C 244.640 266.189,245.270 266.344,245.600 266.344 C 245.978 266.344,245.904 266.217,245.400 266.000 C 244.960 265.811,244.330 265.656,244.000 265.656 C 243.622 265.656,243.696 265.783,244.200 266.000 M249.233 266.546 C 249.325 266.627,250.930 266.782,252.800 266.890 C 254.670 266.999,255.750 266.951,255.200 266.784 C 254.201 266.480,248.918 266.270,249.233 266.546 M228.124 269.800 C 228.126 271.120,228.201 271.612,228.290 270.893 C 228.379 270.174,228.377 269.094,228.286 268.493 C 228.195 267.892,228.122 268.480,228.124 269.800 M263.999 271.001 C 264.768 271.880,265.555 272.780,265.748 273.000 C 265.940 273.220,265.911 273.040,265.683 272.600 C 265.455 272.160,264.668 271.260,263.934 270.601 L 262.600 269.402 263.999 271.001 M267.444 277.800 C 267.773 279.271,268.002 279.590,267.994 278.567 C 267.991 278.145,267.805 277.530,267.582 277.200 C 267.285 276.762,267.248 276.924,267.444 277.800 M268.137 283.800 C 268.139 285.560,268.209 286.230,268.293 285.289 C 268.378 284.349,268.377 282.909,268.291 282.089 C 268.205 281.270,268.136 282.040,268.137 283.800 M238.600 282.381 C 239.368 282.729,241.510 282.956,241.167 282.653 C 241.075 282.572,240.280 282.396,239.400 282.262 C 238.285 282.093,238.042 282.129,238.600 282.381 M247.300 283.076 C 247.685 283.176,248.315 283.176,248.700 283.076 C 249.085 282.975,248.770 282.893,248.000 282.893 C 247.230 282.893,246.915 282.975,247.300 283.076 M255.792 291.047 C 255.788 292.459,255.910 293.296,256.064 292.907 C 256.440 291.956,256.459 289.511,256.094 288.940 C 255.932 288.687,255.796 289.635,255.792 291.047 M267.649 289.000 C 267.616 289.440,267.496 290.250,267.383 290.800 L 267.177 291.800 267.606 290.819 C 267.842 290.279,267.961 289.469,267.872 289.019 C 267.713 288.221,267.707 288.221,267.649 289.000 M316.072 290.243 C 315.122 290.812,314.437 291.370,314.549 291.483 C 314.662 291.595,315.287 291.308,315.939 290.844 C 318.192 289.239,318.400 289.521,318.400 294.180 L 318.400 298.359 317.062 299.380 C 316.326 299.941,315.516 300.400,315.262 300.400 C 315.008 300.400,314.800 300.580,314.800 300.800 C 314.800 301.020,314.610 301.200,314.378 301.200 C 314.146 301.200,312.896 301.920,311.600 302.800 C 310.304 303.680,309.069 304.400,308.855 304.400 C 308.642 304.400,308.407 304.535,308.333 304.700 C 308.166 305.076,306.036 306.375,305.100 306.671 C 304.509 306.859,304.075 307.600,304.556 307.600 C 304.784 307.600,315.543 301.047,317.313 299.830 L 318.825 298.790 318.713 294.127 C 318.586 288.897,318.509 288.783,316.072 290.243 M312.400 292.438 C 311.850 292.890,311.670 293.156,312.000 293.030 C 312.330 292.904,312.915 292.689,313.300 292.554 C 313.685 292.418,314.000 292.148,314.000 291.953 C 314.000 291.394,313.480 291.552,312.400 292.438 M309.800 293.956 C 308.424 294.807,296.003 302.170,294.200 303.203 C 289.952 305.637,287.963 306.897,288.119 307.053 C 288.218 307.151,290.347 306.031,292.849 304.562 C 295.352 303.093,298.030 301.535,298.800 301.099 C 299.570 300.663,300.678 299.967,301.262 299.553 C 301.846 299.139,302.521 298.800,302.762 298.800 C 303.003 298.800,303.200 298.641,303.200 298.447 C 303.200 298.252,303.515 297.993,303.900 297.871 C 304.585 297.654,306.804 296.396,307.200 296.000 C 307.596 295.604,309.815 294.346,310.500 294.129 C 310.885 294.007,311.200 293.748,311.200 293.553 C 311.200 293.091,311.197 293.092,309.800 293.956 M253.037 299.800 C 252.676 300.350,252.537 300.800,252.727 300.800 C 252.916 300.800,253.277 300.350,253.527 299.800 C 253.778 299.250,253.917 298.800,253.837 298.800 C 253.757 298.800,253.397 299.250,253.037 299.800 M250.400 303.000 C 249.428 303.990,248.723 304.800,248.833 304.800 C 248.943 304.800,249.828 303.990,250.800 303.000 C 251.772 302.010,252.477 301.200,252.367 301.200 C 252.257 301.200,251.372 302.010,250.400 303.000 M286.365 307.713 C 285.141 308.653,284.800 309.966,284.800 313.741 C 284.800 319.773,284.691 319.721,290.200 316.348 C 292.400 315.002,294.780 313.568,295.488 313.163 C 297.660 311.922,300.024 310.291,299.872 310.139 C 299.744 310.011,298.197 310.896,293.282 313.908 C 292.467 314.408,291.530 314.935,291.200 315.079 C 290.870 315.224,290.510 315.445,290.400 315.571 C 290.063 315.957,287.842 317.236,287.100 317.471 C 286.715 317.593,286.400 317.852,286.400 318.047 C 286.400 318.241,286.214 318.400,285.988 318.400 C 285.025 318.400,285.707 308.641,286.700 308.205 C 287.195 307.988,287.600 307.673,287.600 307.505 C 287.600 307.066,287.098 307.151,286.365 307.713 M258.434 308.953 L 257.469 310.200 258.613 309.112 C 259.243 308.514,259.677 307.953,259.579 307.865 C 259.480 307.777,258.965 308.267,258.434 308.953 M302.400 308.400 C 301.850 308.830,301.175 309.186,300.900 309.191 C 300.436 309.199,300.147 310.000,300.609 310.000 C 300.889 310.000,304.000 307.933,304.000 307.747 C 304.000 307.399,303.329 307.673,302.400 308.400 M234.140 308.494 C 234.711 308.859,239.552 308.842,240.487 308.472 C 240.864 308.322,239.487 308.200,237.427 308.200 C 235.366 308.200,233.887 308.332,234.140 308.494 M255.978 311.900 L 254.600 313.400 256.100 312.022 C 257.496 310.738,257.784 310.400,257.478 310.400 C 257.412 310.400,256.737 311.075,255.978 311.900 M252.798 322.682 C 252.689 325.366,252.741 327.421,252.914 327.248 C 253.086 327.074,253.175 324.878,253.112 322.366 L 252.996 317.800 252.798 322.682 M240.478 321.495 C 239.531 321.822,238.833 322.166,238.927 322.260 C 239.021 322.354,239.874 322.164,240.822 321.837 C 241.770 321.510,242.721 321.351,242.935 321.483 C 243.150 321.616,243.196 321.517,243.038 321.262 C 242.705 320.723,242.719 320.722,240.478 321.495 M232.505 323.087 C 233.114 323.179,234.014 323.177,234.505 323.082 C 234.997 322.987,234.500 322.911,233.400 322.914 C 232.300 322.917,231.897 322.995,232.505 323.087 " stroke="none" fill="#868c8e" fill-rule="evenodd"></path><path id="path3" d="M247.700 221.246 C 246.337 222.119,245.895 222.706,247.100 222.043 C 248.018 221.539,249.456 220.427,249.200 220.419 C 249.090 220.416,248.415 220.788,247.700 221.246 M252.482 226.076 C 252.398 231.681,252.586 232.416,253.897 231.612 C 254.542 231.216,254.534 231.189,253.800 231.290 C 253.043 231.394,252.988 231.109,252.782 226.000 L 252.564 220.600 252.482 226.076 M242.400 231.826 C 242.400 234.814,242.210 237.645,241.978 238.126 C 241.570 238.970,241.577 238.974,242.178 238.224 C 242.774 237.479,243.170 226.400,242.600 226.400 C 242.490 226.400,242.400 228.842,242.400 231.826 M260.305 230.283 C 260.802 230.379,261.522 230.375,261.905 230.275 C 262.287 230.175,261.880 230.096,261.000 230.101 C 260.120 230.105,259.807 230.187,260.305 230.283 M255.800 230.800 C 255.296 231.017,255.222 231.144,255.600 231.144 C 255.930 231.144,256.560 230.989,257.000 230.800 C 257.504 230.583,257.578 230.456,257.200 230.456 C 256.870 230.456,256.240 230.611,255.800 230.800 M264.859 231.000 C 265.221 231.440,265.605 232.160,265.712 232.600 C 265.900 233.369,265.909 233.368,265.954 232.562 C 265.979 232.101,265.595 231.381,265.100 230.962 C 264.207 230.206,264.205 230.207,264.859 231.000 M238.764 241.100 C 236.943 242.994,234.477 245.950,235.844 244.600 C 237.339 243.123,241.295 238.800,241.151 238.800 C 241.054 238.800,239.980 239.835,238.764 241.100 M262.237 244.200 C 261.827 244.826,261.173 245.220,260.491 245.254 C 259.516 245.303,259.498 245.328,260.322 245.485 C 261.307 245.673,262.200 245.122,262.836 243.933 C 263.413 242.855,262.996 243.041,262.237 244.200 M253.800 245.200 C 252.722 245.474,252.702 245.506,253.600 245.513 C 254.150 245.517,255.050 245.376,255.600 245.200 C 256.944 244.769,255.492 244.769,253.800 245.200 M250.100 246.586 C 248.945 247.123,248.000 247.653,248.000 247.763 C 248.000 247.982,251.892 246.241,252.288 245.845 C 252.706 245.427,252.274 245.573,250.100 246.586 M246.122 249.029 L 245.000 250.058 246.300 249.154 C 247.015 248.657,247.600 248.193,247.600 248.125 C 247.600 247.809,247.158 248.080,246.122 249.029 M240.520 259.600 C 240.520 260.810,240.595 261.305,240.687 260.700 C 240.778 260.095,240.778 259.105,240.687 258.500 C 240.595 257.895,240.520 258.390,240.520 259.600 M228.229 260.229 C 228.081 260.815,228.038 261.372,228.132 261.466 C 228.227 261.560,228.424 261.158,228.571 260.571 C 228.719 259.985,228.762 259.428,228.668 259.334 C 228.573 259.240,228.376 259.642,228.229 260.229 M227.427 266.100 C 227.300 267.255,227.344 268.830,227.526 269.600 C 227.784 270.690,227.859 270.224,227.868 267.500 C 227.882 263.494,227.757 263.098,227.427 266.100 M246.000 266.023 C 246.957 266.308,253.826 266.482,253.000 266.201 C 252.780 266.126,250.890 265.988,248.800 265.895 C 246.710 265.802,245.450 265.859,246.000 266.023 M263.862 270.404 C 264.775 271.392,265.900 272.830,266.360 273.600 C 266.820 274.370,267.198 274.802,267.199 274.560 C 267.201 273.912,265.105 271.179,263.552 269.804 C 262.495 268.869,262.562 268.999,263.862 270.404 M231.401 279.134 C 232.060 279.868,232.960 280.655,233.400 280.883 C 233.840 281.111,234.020 281.140,233.800 280.948 C 233.580 280.755,232.680 279.968,231.801 279.199 L 230.202 277.800 231.401 279.134 M268.281 280.400 C 268.406 281.610,268.574 282.675,268.654 282.767 C 268.935 283.087,268.717 280.191,268.387 279.200 C 268.171 278.554,268.134 278.980,268.281 280.400 M235.200 281.769 C 235.750 282.064,236.830 282.416,237.600 282.551 C 238.574 282.723,238.330 282.558,236.800 282.010 C 234.227 281.089,233.819 281.027,235.200 281.769 M240.500 283.087 C 241.105 283.178,242.095 283.178,242.700 283.087 C 243.305 282.995,242.810 282.920,241.600 282.920 C 240.390 282.920,239.895 282.995,240.500 283.087 M245.507 283.490 C 246.226 283.579,247.306 283.577,247.907 283.486 C 248.508 283.395,247.920 283.322,246.600 283.324 C 245.280 283.326,244.788 283.401,245.507 283.490 M268.266 286.768 C 268.119 288.178,268.074 289.407,268.166 289.500 C 268.414 289.747,268.915 285.346,268.710 284.730 C 268.613 284.440,268.414 285.357,268.266 286.768 M316.980 289.162 C 316.771 289.362,315.950 289.885,315.155 290.325 C 312.409 291.845,311.799 292.201,311.600 292.400 C 311.204 292.796,308.985 294.054,308.300 294.271 C 307.915 294.393,307.600 294.659,307.600 294.861 C 307.600 295.286,308.560 294.814,311.508 292.940 C 312.667 292.203,313.690 291.600,313.781 291.600 C 313.872 291.600,314.846 291.041,315.944 290.358 C 318.633 288.687,318.786 288.883,318.884 294.124 L 318.967 298.600 319.101 294.600 C 319.281 289.190,318.649 287.571,316.980 289.162 M267.429 291.829 C 267.281 292.415,267.238 292.972,267.332 293.066 C 267.427 293.160,267.624 292.758,267.771 292.171 C 267.919 291.585,267.962 291.028,267.868 290.934 C 267.773 290.840,267.576 291.242,267.429 291.829 M255.301 293.000 C 255.305 293.880,255.387 294.193,255.483 293.695 C 255.579 293.198,255.575 292.478,255.475 292.095 C 255.375 291.713,255.296 292.120,255.301 293.000 M304.060 296.823 C 302.663 297.691,301.475 298.400,301.420 298.400 C 301.365 298.400,298.539 300.065,295.140 302.100 C 291.741 304.135,288.445 306.070,287.816 306.400 C 284.699 308.036,284.400 308.673,284.400 313.680 C 284.400 318.151,284.669 319.200,285.814 319.200 C 286.235 319.200,294.819 314.146,302.800 309.200 C 304.670 308.041,306.761 306.774,307.447 306.383 C 308.132 305.993,309.932 304.913,311.447 303.983 C 312.961 303.053,315.235 301.678,316.500 300.927 C 317.765 300.176,318.800 299.362,318.800 299.119 C 318.800 298.860,318.509 298.931,318.100 299.289 C 317.462 299.848,307.745 305.816,304.400 307.704 C 303.630 308.138,302.522 308.833,301.938 309.247 C 301.354 309.661,300.757 310.000,300.610 310.000 C 300.464 310.000,299.591 310.518,298.670 311.152 C 297.749 311.785,296.367 312.663,295.598 313.102 C 294.829 313.541,292.400 315.002,290.200 316.348 C 284.696 319.718,284.800 319.767,284.800 313.786 C 284.800 309.607,285.194 308.343,286.744 307.544 C 287.325 307.245,289.170 306.168,290.845 305.152 C 292.520 304.135,294.052 303.235,294.249 303.152 C 295.045 302.815,307.200 295.496,307.200 295.354 C 307.200 294.990,306.446 295.343,304.060 296.823 M252.404 300.193 C 251.931 300.959,250.701 302.332,249.672 303.242 C 248.642 304.153,248.340 304.533,249.000 304.086 C 250.815 302.857,254.252 298.800,253.479 298.800 C 253.361 298.800,252.878 299.427,252.404 300.193 M263.496 302.135 C 262.669 303.711,262.278 304.640,262.628 304.200 C 263.402 303.226,265.303 299.570,265.127 299.395 C 265.057 299.326,264.323 300.559,263.496 302.135 M234.000 308.000 C 234.550 308.176,235.360 308.320,235.800 308.320 C 236.433 308.320,236.392 308.254,235.600 308.000 C 235.050 307.824,234.240 307.680,233.800 307.680 C 233.167 307.680,233.208 307.746,234.000 308.000 M238.800 308.000 C 238.008 308.254,237.967 308.320,238.600 308.320 C 239.040 308.320,239.850 308.176,240.400 308.000 C 241.192 307.746,241.233 307.680,240.600 307.680 C 240.160 307.680,239.350 307.824,238.800 308.000 M255.789 312.500 L 253.000 315.400 255.900 312.611 C 258.594 310.020,258.983 309.600,258.689 309.600 C 258.628 309.600,257.323 310.905,255.789 312.500 M227.357 319.831 C 227.087 320.905,227.835 322.800,228.530 322.800 C 228.747 322.800,228.609 322.452,228.224 322.027 C 227.716 321.466,227.599 320.917,227.794 320.027 C 228.119 318.546,227.724 318.369,227.357 319.831 M230.540 323.294 C 230.793 323.456,232.170 323.588,233.600 323.588 C 235.030 323.588,236.408 323.456,236.662 323.294 C 236.917 323.132,235.540 323.000,233.602 323.000 C 231.665 323.000,230.287 323.132,230.540 323.294 M253.293 325.200 C 253.293 325.970,253.375 326.285,253.476 325.900 C 253.576 325.515,253.576 324.885,253.476 324.500 C 253.375 324.115,253.293 324.430,253.293 325.200 M250.481 329.772 C 248.725 331.014,248.297 331.545,249.800 330.618 C 251.878 329.335,252.591 328.799,252.189 328.820 C 251.975 328.830,251.207 329.259,250.481 329.772 M246.800 332.036 C 246.136 332.579,246.069 332.715,246.600 332.440 C 247.905 331.766,248.628 331.212,248.200 331.215 C 247.980 331.217,247.350 331.586,246.800 332.036 " stroke="none" fill="#b1c4a9" fill-rule="evenodd"></path><path id="path4" d="M244.300 283.082 C 244.795 283.178,245.605 283.178,246.100 283.082 C 246.595 282.987,246.190 282.909,245.200 282.909 C 244.210 282.909,243.805 282.987,244.300 283.082 M252.901 316.600 C 252.905 317.480,252.987 317.793,253.083 317.295 C 253.179 316.798,253.175 316.078,253.075 315.695 C 252.975 315.313,252.896 315.720,252.901 316.600 M242.955 326.600 C 242.956 329.460,243.020 330.578,243.097 329.083 C 243.174 327.589,243.174 325.249,243.096 323.883 C 243.018 322.518,242.955 323.740,242.955 326.600 " stroke="none" fill="#94949c" fill-rule="evenodd"></path></g></svg>