<?xml version="1.0" standalone="no"?>
<!DOCTYPE svg PUBLIC "-//W3C//DTD SVG 20010904//EN"
 "http://www.w3.org/TR/2001/REC-SVG-20010904/DTD/svg10.dtd">
<svg version="1.0" xmlns="http://www.w3.org/2000/svg"
 width="200.000000pt" height="200.000000pt" viewBox="0 0 200.000000 200.000000"
 preserveAspectRatio="xMidYMid meet">

<g transform="translate(0.000000,200.000000) scale(0.100000,-0.100000)"
fill="#000000" stroke="none">
<path d="M886 1879 c-229 -33 -439 -152 -576 -325 -183 -230 -243 -538 -158
-814 92 -301 339 -529 654 -607 100 -24 297 -23 394 1 336 86 580 330 666 666
24 97 25 294 1 394 -64 258 -226 470 -449 586 -105 55 -175 78 -288 95 -104
16 -155 17 -244 4z m204 -54 c11 -13 10 -33 -3 -108 -24 -134 -35 -165 -57
-172 -43 -14 -59 3 -85 88 -56 179 -47 207 65 207 49 0 71 -4 80 -15z m-261
-44 c20 -20 81 -195 81 -231 0 -20 -27 -40 -55 -40 -24 0 -195 179 -195 204 0
16 15 31 53 53 61 37 90 40 116 14z m444 -2 c53 -27 77 -48 77 -68 0 -21 -180
-201 -201 -201 -9 0 -26 8 -38 18 l-20 17 35 108 c35 107 59 147 89 147 9 0
35 -10 58 -21z m-651 -111 c16 -13 95 -133 122 -186 14 -28 14 -31 -10 -52
-24 -23 -25 -23 -60 -6 -58 27 -205 127 -211 143 -4 9 13 34 43 64 50 51 84
62 116 37z m878 -34 c28 -26 50 -53 50 -61 0 -14 -193 -146 -231 -158 -15 -5
-28 0 -45 17 l-24 24 54 89 c95 157 114 165 196 89z m-1014 -146 c63 -68 124
-143 124 -153 0 -17 -34 -45 -54 -45 -30 0 -245 106 -252 125 -6 14 27 66 68
107 31 31 61 22 114 -34z m1152 34 c41 -41 74 -93 68 -107 -7 -18 -221 -125
-250 -125 -21 0 -56 27 -56 43 0 11 91 125 140 175 36 36 71 41 98 14z m-1217
-229 c86 -44 109 -60 109 -77 0 -28 -11 -42 -36 -50 -30 -9 -265 11 -278 24
-16 16 9 121 35 143 32 26 53 22 170 -40z m1338 40 c26 -22 51 -127 35 -143
-6 -6 -67 -15 -136 -21 -147 -12 -178 -5 -178 39 0 26 9 34 108 85 116 61 139
66 171 40z m-687 -314 c289 -240 362 -306 360 -323 -3 -24 -30 -48 -49 -44 -7
2 -174 137 -372 302 l-360 298 14 28 c12 24 22 32 42 39 2 1 166 -135 365
-300z m251 261 c-10 -9 -79 -62 -155 -118 -128 -94 -137 -99 -152 -83 -15 16
-5 25 142 128 117 83 160 108 170 100 11 -8 10 -14 -5 -27z m56 -34 c16 -19
-254 -254 -277 -239 -9 5 -17 14 -19 20 -3 7 270 233 282 233 1 0 8 -6 14 -14z
m-1034 -136 c123 -19 145 -28 145 -55 0 -35 -28 -49 -158 -80 -137 -32 -142
-30 -142 61 0 53 3 65 22 78 12 9 31 14 42 11 12 -2 53 -9 91 -15z m1450 -12
c24 -22 25 -26 18 -83 -7 -52 -11 -60 -30 -63 -28 -4 -210 45 -240 64 -25 16
-30 46 -10 62 10 9 151 34 224 41 7 1 23 -9 38 -21z m-871 -87 c17 -18 15 -21
-51 -74 -109 -87 -123 -103 -123 -136 0 -20 -13 -44 -40 -76 -22 -25 -40 -54
-40 -63 0 -9 -9 -36 -20 -60 -14 -31 -29 -47 -56 -58 -20 -8 -41 -13 -47 -11
-7 2 -40 -16 -75 -40 -64 -45 -87 -49 -112 -18 -13 16 -6 19 33 16 10 -2 21 8
26 21 13 34 82 77 120 76 49 -2 62 20 71 110 9 85 24 124 62 158 17 16 228
173 234 174 0 0 9 -9 18 -19z m101 -80 c3 -6 -50 -57 -117 -115 -88 -76 -130
-106 -149 -106 l-26 0 21 43 c29 60 219 211 247 197 10 -6 20 -14 24 -19z
m563 -130 c-5 -13 -262 -320 -269 -320 -12 -2 -31 77 -23 91 24 40 64 77 78
72 35 -14 90 52 67 80 -7 9 -1 23 20 49 28 34 35 37 81 37 27 0 48 -4 46 -9z
m115 -82 c20 -16 20 -17 1 -41 -58 -74 -258 -308 -263 -308 -3 0 -30 22 -60
48 l-54 48 138 166 139 167 39 -32 c22 -18 48 -39 60 -48z m-1102 24 c-7 -25
-11 -27 -47 -25 -49 4 -68 -15 -67 -64 1 -29 -6 -40 -43 -70 -24 -20 -50 -34
-58 -31 -8 3 -20 -1 -26 -9 -7 -8 -9 -14 -5 -14 4 0 2 -7 -5 -15 -11 -13 -15
-13 -21 -3 -18 28 -7 48 51 90 41 30 60 50 60 65 1 63 48 102 127 103 40 0 41
-1 34 -27z m481 -141 c44 -52 53 -86 38 -146 -7 -30 -10 -59 -6 -65 14 -22 55
-12 71 17 l16 27 -6 -45 c-8 -57 -30 -95 -78 -133 -31 -26 -49 -32 -101 -35
-104 -7 -179 47 -206 146 -12 46 -7 77 18 105 22 25 32 21 26 -12 -8 -40 27
-77 57 -60 17 9 20 17 15 42 -17 82 -17 96 -1 131 10 20 21 36 25 36 4 0 10
-23 13 -51 9 -78 40 -102 71 -57 20 28 20 68 1 113 -13 33 -13 35 4 25 11 -5
30 -23 43 -38z"/>
<path d="M670 785 c-11 -13 -11 -19 3 -33 20 -19 41 -5 35 24 -4 24 -22 28
-38 9z"/>
</g>
</svg>
