<?xml version="1.0" encoding="UTF-8"?>
<!DOCTYPE svg PUBLIC "-//W3C//DTD SVG 1.1//EN" "http://www.w3.org/Graphics/SVG/1.1/DTD/svg11.dtd">
<svg xmlns="http://www.w3.org/2000/svg" version="1.1" width="200px" height="200px" style="shape-rendering:geometricPrecision; text-rendering:geometricPrecision; image-rendering:optimizeQuality; fill-rule:evenodd; clip-rule:evenodd" xmlns:xlink="http://www.w3.org/1999/xlink">
<g><path style="opacity:1" fill="#f6f6f6" d="M 48.5,74.5 C 48.3335,86.1714 48.5001,97.8381 49,109.5C 49.9299,111.552 51.4299,113.052 53.5,114C 59.8333,114.667 66.1667,114.667 72.5,114C 77.7572,111.989 79.7572,108.156 78.5,102.5C 78.7064,96.1354 78.373,89.8021 77.5,83.5C 78.0819,79.8449 78.5819,76.1782 79,72.5C 79.5,70.6667 80.6667,69.5 82.5,69C 85.592,68.2642 88.592,68.4309 91.5,69.5C 91.427,71.0269 92.0937,72.0269 93.5,72.5C 94.4942,82.6532 94.8276,92.9865 94.5,103.5C 93.3519,108.439 95.0186,111.939 99.5,114C 105.833,114.667 112.167,114.667 118.5,114C 120.939,113.226 122.773,111.726 124,109.5C 124.5,97.8381 124.667,86.1714 124.5,74.5C 125.266,70.105 127.933,68.105 132.5,68.5C 136.177,68.3361 138.677,70.0028 140,73.5C 140.667,90.1667 140.667,106.833 140,123.5C 139.226,125.939 137.726,127.773 135.5,129C 102.833,129.667 70.1667,129.667 37.5,129C 35.1853,127.891 33.6853,126.057 33,123.5C 32.3333,107.167 32.3333,90.8333 33,74.5C 35.9318,68.456 40.4318,66.956 46.5,70C 47.5822,71.3297 48.2488,72.8297 48.5,74.5 Z"/></g>
<g><path style="opacity:0.529" fill="#6b6b6b" d="M 91.5,69.5 C 92.9063,69.9731 93.573,70.9731 93.5,72.5C 92.0937,72.0269 91.427,71.0269 91.5,69.5 Z"/></g>
<g><path style="opacity:0.104" fill="#2b2b2b" d="M 48.5,74.5 C 49.3305,85.3257 49.8305,96.3257 50,107.5C 50.4652,108.931 51.2986,110.097 52.5,111C 59.0573,112.586 65.724,112.92 72.5,112C 74.0016,111.417 75.3349,110.584 76.5,109.5C 77.0671,107.018 77.7337,104.684 78.5,102.5C 79.7572,108.156 77.7572,111.989 72.5,114C 66.1667,114.667 59.8333,114.667 53.5,114C 51.4299,113.052 49.9299,111.552 49,109.5C 48.5001,97.8381 48.3335,86.1714 48.5,74.5 Z"/></g>
<g><path style="opacity:0.076" fill="#2d2d2d" d="M 124.5,74.5 C 124.667,86.1714 124.5,97.8381 124,109.5C 122.773,111.726 120.939,113.226 118.5,114C 112.167,114.667 105.833,114.667 99.5,114C 95.0186,111.939 93.3519,108.439 94.5,103.5C 94.8591,106.719 96.1924,109.553 98.5,112C 105.94,112.928 113.274,112.594 120.5,111C 121.211,109.745 122.044,108.579 123,107.5C 123.17,96.3257 123.67,85.3257 124.5,74.5 Z"/></g>
<g><path style="opacity:0.729" fill="#4b4b4b" d="M 158.5,110.5 C 156.194,110.993 153.861,111.326 151.5,111.5C 153.713,109.688 156.047,109.355 158.5,110.5 Z"/></g>
<g><path style="opacity:0.999" fill="#ebebeb" d="M 158.5,110.5 C 169.23,115.335 170.23,121.835 161.5,130C 152.399,133.28 147.065,130.114 145.5,120.5C 145.436,118.443 146.102,116.777 147.5,115.5C 149.167,114.5 150.5,113.167 151.5,111.5C 153.861,111.326 156.194,110.993 158.5,110.5 Z"/></g>
<g><path style="opacity:0.459" fill="#474747" d="M 151.5,111.5 C 150.5,113.167 149.167,114.5 147.5,115.5C 147.833,113.167 149.167,111.833 151.5,111.5 Z"/></g>
</svg>
